<svg xmlns="http://www.w3.org/2000/svg" viewBox="0 0 32 32"><path fill="#0b0c0c" d="M0 0h32v32H0z"/><path fill="#fff" d="M 13.76 7.25 c -0.16 0.24 -0.32 0.4 -0.24 0.64 l 0.32 0.56 l 0.24 -0.64 l -0.32 -0.56 z m 3.68 0 c 0.08 0.24 0.24 0.4 0.24 0.64 c 0 0.16 -0.24 0.32 -0.4 0.56 c 0 -0.24 -0.24 -0.48 -0.24 -0.64 c 0 -0.16 0.32 -0.48 0.4 -0.56 z m -5.84 -0.16 a 0.24 0.24 90 0 0 0.24 -0.24 a 0.24 0.24 90 0 0 -0.24 -0.24 a 0.24 0.24 90 0 0 -0.24 0.24 a 0.24 0.24 90 0 0 0.24 0.24 z m 0.24 0.32 a 0.24 0.24 90 0 0 -0.24 -0.24 a 0.24 0.24 90 0 0 -0.32 0.24 c 0 0.16 0.16 0.24 0.32 0.24 a 0.24 0.24 90 0 0 0.24 -0.24 z m 0 0.64 a 0.24 0.24 90 0 0 -0.16 -0.24 a 0.24 0.24 90 0 0 -0.24 0.24 c 0 0.16 0.08 0.24 0.24 0.24 a 0.24 0.24 90 0 0 0.24 -0.24 z m 1.2 -2.16 A 0.24 0.24 90 0 0 13.28 5.65 a 0.24 0.24 90 0 0 -0.24 -0.24 a 0.24 0.24 90 0 0 -0.24 0.24 c 0 0.16 0 0.24 0.24 0.24 z m -0.64 0.24 a 0.24 0.24 90 0 0 0.24 -0.32 a 0.24 0.24 90 0 0 -0.24 -0.24 a 0.24 0.24 90 0 0 -0.24 0.24 c 0 0.16 0.08 0.32 0.24 0.32 z m -0.48 0.4 a 0.24 0.24 90 0 0 0.24 -0.24 a 0.24 0.24 90 0 0 -0.24 -0.24 a 0.24 0.24 90 0 0 -0.24 0.24 c 0 0.16 0.08 0.24 0.24 0.24 z m 1.76 -0.56 a 0.24 0.24 90 0 0 0.24 -0.24 a 0.24 0.24 90 0 0 -0.24 -0.24 a 0.24 0.24 90 0 0 -0.32 0.24 c 0 0.08 0.16 0.24 0.32 0.24 z m 0.56 0.16 a 0.24 0.24 90 0 0 0.32 -0.24 a 0.24 0.24 90 0 0 -0.32 -0.24 a 0.24 0.24 90 0 0 -0.24 0.24 c 0 0.16 0.16 0.24 0.24 0.24 z m 0.64 0.32 a 0.24 0.24 90 0 0 0.24 -0.32 a 0.24 0.24 90 0 0 -0.24 -0.24 a 0.24 0.24 90 0 0 -0.32 0.24 c 0 0.16 0.16 0.32 0.32 0.32 z m 4.4 0.4 c 0 0.16 0.08 0.24 0.24 0.24 a 0.24 0.24 90 0 0 0.24 -0.24 a 0.24 0.24 90 0 0 -0.24 -0.24 a 0.24 0.24 90 0 0 -0.24 0.24 z m 0.32 0.32 a 0.24 0.24 90 0 0 -0.24 0.24 c 0 0.16 0 0.24 0.24 0.24 a 0.24 0.24 90 0 0 0.24 -0.24 a 0.24 0.24 90 0 0 -0.24 -0.24 z m -0.16 0.64 a 0.24 0.24 90 0 0 -0.24 0.24 c 0 0.16 0.16 0.24 0.24 0.24 A 0.24 0.24 90 0 0 19.68 8.05 a 0.24 0.24 90 0 0 -0.24 -0.24 z m -1.28 -1.92 a 0.24 0.24 90 0 0 0.24 -0.24 a 0.24 0.24 90 0 0 -0.24 -0.24 a 0.24 0.24 90 0 0 -0.32 0.24 c 0 0.16 0.16 0.24 0.32 0.24 z m 0.64 0.24 a 0.24 0.24 90 0 0 0.24 -0.32 a 0.24 0.24 90 0 0 -0.32 -0.24 a 0.24 0.24 90 0 0 -0.24 0.24 c 0 0.16 0.16 0.32 0.32 0.32 z m 0.4 0.4 a 0.24 0.24 90 0 0 0.24 -0.24 a 0.24 0.24 90 0 0 -0.24 -0.24 a 0.24 0.24 90 0 0 -0.24 0.24 c 0 0.16 0.16 0.24 0.24 0.24 z m -1.68 -0.56 a 0.24 0.24 90 0 0 0.24 -0.24 a 0.24 0.24 90 0 0 -0.24 -0.24 a 0.24 0.24 90 0 0 -0.24 0.24 c 0 0.08 0 0.24 0.24 0.24 z m -0.64 0.16 a 0.24 0.24 90 0 0 0.24 -0.24 a 0.24 0.24 90 0 0 -0.24 -0.24 a 0.24 0.24 90 0 0 -0.24 0.24 c 0 0.16 0.08 0.24 0.24 0.24 z m -0.8 0 c 0 0.16 0 0.32 0.24 0.32 a 0.24 0.24 90 0 0 0.24 -0.32 a 0.24 0.24 90 0 0 -0.24 -0.24 a 0.24 0.24 90 0 0 -0.24 0.24 z m -0.88 1.36 h 0.24 V 6.53 h -0.24 z m 0.8 -1.12 a 0.64 0.64 90 0 1 -0.24 0 v 1.12 h 0.24 z m -0.56 -1.2 v -0.56 a 0.8 0.8 90 0 0 -0.64 0.64 h 0.64 z m 0.32 0 h 0.56 a 0.8 0.8 90 0 0 -0.56 -0.64 z"></path><path fill="#fff" d="M 14.88 5.65 c 0 0.24 0.32 0.56 0.72 0.56 a 0.8 0.8 90 0 0 0.8 -0.64 z m 1.12 -1.12 a 0.64 0.64 90 0 1 -0.32 -0.56 c 0.16 0 0.4 0.16 0.56 0.4 v -0.8 l -0.56 0.24 c 0 -0.16 0.08 -0.32 0.32 -0.56 h -0.8 c 0.16 0.24 0.24 0.4 0.24 0.64 c -0.16 0 -0.4 -0.24 -0.56 -0.4 v 0.8 l 0.56 -0.32 c 0 0.24 -0.16 0.48 -0.32 0.56 z m 0 17.76 a 0.32 0.32 90 0 1 -0.32 -0.32 a 0.32 0.32 90 1 1 0.64 0 c 0 0.16 -0.16 0.32 -0.32 0.32 z m -1.44 -0.48 a 0.32 0.32 90 0 1 -0.32 -0.32 c 0 -0.16 0.16 -0.32 0.32 -0.32 s 0.32 0.16 0.32 0.32 s -0.16 0.32 -0.32 0.32 z m -0.48 -1.44 l -0.08 -0.08 h -0.4 l -0.24 0.16 v 0.08 c 0.24 0.24 0.24 0.32 0.16 0.4 v 0.08 h -0.4 l -0.08 -0.08 v 0.08 l -0.08 0.08 a 0.56 0.56 90 0 0 -0.16 0.32 a 0.8 0.8 90 0 0 0.16 0.24 l 0.32 0.16 a 0.48 0.48 90 0 1 -0.48 0 l -0.32 -0.48 c 0 -0.16 0 -0.4 0.24 -0.64 v -0.08 l -0.08 -0.24 h 0.24 c 0.16 -0.08 0.48 -0.4 0.8 -0.4 a 0.56 0.56 90 0 1 0.4 0.16 l 0.16 0.32 a 0.24 0.24 90 0 1 -0.16 -0.08 z m 2.88 1.12 a 19.04 19.04 90 0 1 -2.64 -0.88 a 0.64 0.64 90 0 0 -0.16 -0.56 l -0.48 -0.24 h -0.24 c -0.16 0 -0.24 -0.24 -0.4 -0.32 a 4.56 4.56 90 0 1 -0.8 -1.36 a 3.6 3.6 90 0 1 -0.16 -0.8 c 0 0.16 -0.32 0.56 -0.8 0.56 V 17.65 c -0.16 0.08 -0.32 0.24 -0.8 0.08 c 0 0.4 0.16 0.72 0.24 1.04 a 5.28 5.28 90 0 0 1.12 1.92 l 0.56 0.48 v 0.08 c 0 0.16 0.16 0.48 0.4 0.64 l 0.64 -0.08 a 4 4 90 0 0 1.36 0.48 a 5.6 5.6 90 0 0 1.6 0.24 c 0.4 0 0.88 -0.16 1.36 -0.48 l 0.56 -0.4 a 4 4 90 0 1 -1.36 -0.24 z m -0.32 3.2 l -0.16 -0.16 c -0.32 0 -0.16 0.8 -0.56 0.8 c -0.16 0 -0.24 -0.08 -0.24 -0.16 V 24.85 l -0.08 -0.16 c -0.08 0 -0.16 0 -0.16 0.16 v 0.24 c 0 0.08 0 0.16 -0.16 0.16 c -0.4 0 -0.24 -0.8 -0.56 -0.8 c -0.08 0 -0.16 0 -0.24 0.16 a 0.64 0.64 90 0 1 -0.08 -0.32 c 0 -0.16 0.08 -0.32 0.32 -0.32 c 0.48 0 0.32 0.56 0.56 0.56 l 0.16 -0.16 c 0 -0.16 -0.32 -0.32 -0.32 -0.56 c 0 -0.24 0.24 -0.48 0.48 -0.64 c 0.24 0.16 0.48 0.4 0.48 0.64 c 0 0.24 -0.32 0.4 -0.32 0.56 a 0.16 0.16 90 0 0 0.16 0.16 c 0.16 0 0.08 -0.56 0.48 -0.56 c 0.24 0 0.4 0.16 0.4 0.32 l -0.16 0.32 z M 15.68 25.81 a 0.24 0.24 90 0 1 -0.24 -0.16 c 0 -0.08 0.08 -0.24 0.24 -0.24 s 0.16 0.16 0.16 0.24 a 0.24 0.24 90 0 1 -0.16 0.16 z m 0.8 -2 h -0.08 v -0.88 a 5.04 5.04 90 0 1 -1.44 -0.24 v 1.12 h -0.16 c -0.32 0 -0.48 0.24 -0.48 0.56 c 0 0.24 0.08 0.4 0.24 0.56 c 0 -0.16 0.08 -0.24 0.16 -0.24 c 0.24 0 0.08 0.8 0.56 0.8 v 0.16 c 0 0.24 0.16 0.4 0.4 0.4 s 0.32 -0.24 0.32 -0.4 c 0.4 0 0.4 -0.88 0.56 -0.88 c 0 0 0.16 0.08 0.16 0.24 c 0.16 -0.16 0.32 -0.32 0.32 -0.56 c 0 -0.32 -0.24 -0.56 -0.56 -0.56 z"></path><path fill="#fff" d="M 27.36 24.93 h -0.08 c -1.12 0.24 -2.4 -0.64 -3.76 -1.52 c -1.12 -0.8 -2.16 -1.44 -3.04 -1.44 c -0.32 0 -0.64 0.08 -0.8 0.24 a 1.6 1.6 90 0 0 -0.8 0.8 l -0.4 0.8 l -0.24 0.64 c 0 0.16 0 0.32 0.24 0.48 c 0.08 0.16 0.24 0.32 0.56 0.4 l 0.16 0.08 l 0.4 0.32 a 7.6 7.6 90 0 1 -1.6 0.4 l -2.4 0.24 c -0.8 0 -1.6 -0.08 -2.32 -0.24 a 7.52 7.52 90 0 1 -1.6 -0.4 c 0 -0.16 0.16 -0.24 0.4 -0.4 h 0.16 l 0.56 -0.4 l 0.24 -0.48 l -0.32 -0.64 a 4.24 4.24 90 0 1 -0.4 -0.8 a 1.6 1.6 90 0 0 -0.72 -0.8 c -0.24 -0.16 -0.48 -0.24 -0.8 -0.24 c -0.96 0 -2 0.8 -3.12 1.44 c -1.28 0.88 -2.64 1.76 -3.68 1.44 l -0.16 0.08 l 0.08 0.16 l 0.96 0.56 c 0.4 0.32 0.8 0.64 1.12 0.64 c 0.4 0 0.8 -0.16 1.36 -0.4 a 20.24 20.24 90 0 0 1.28 -0.8 a 5.6 5.6 90 0 1 2.64 -1.36 c 0 0.16 -0.16 0.24 -0.24 0.32 c -0.24 0.16 -0.48 0.4 -0.48 0.8 c 0 0.32 0.08 0.48 0.24 0.8 l 0.16 0.32 l 0.16 0.64 l 0.08 0.32 c 0.08 0.24 0.16 0.56 0.8 0.88 c 0.72 0.4 1.92 0.56 3.68 0.56 c 1.68 0 2.96 -0.16 3.68 -0.56 c 0.56 -0.32 0.64 -0.72 0.8 -0.8 v -0.4 l 0.16 -0.64 l 0.24 -0.4 c 0.08 -0.24 0.24 -0.4 0.24 -0.64 c 0 -0.4 -0.24 -0.64 -0.56 -0.88 l -0.24 -0.24 c 0.88 0 1.76 0.64 2.64 1.28 l 1.36 0.8 c 0.48 0.24 0.88 0.4 1.28 0.4 s 0.8 -0.24 1.2 -0.56 l 0.88 -0.64 v -0.16 z M 15.76 16.45 v -4 c 0.4 0 0.8 0 1.2 0.24 s 0.8 0.48 1.12 0.88 c 0.32 0.4 0.64 0.8 0.8 1.36 a 4.64 4.64 90 0 1 0.24 1.6 h -3.36 z m -0.16 -5.76 c -1.2 0 -2 0.32 -2.4 0.64 c -0.32 -0.16 -0.4 -0.32 -0.4 -0.48 c 0 -0.72 1.84 -0.8 2.8 -0.8 s 2.8 0.16 2.8 0.8 c 0 0.16 -0.08 0.32 -0.4 0.48 c -0.48 -0.32 -1.28 -0.64 -2.4 -0.64 z m -0.08 5.76 h -3.52 a 4.64 4.64 90 0 1 1.04 -2.88 c 0.32 -0.4 0.8 -0.64 1.2 -0.8 a 2.88 2.88 90 0 1 1.28 -0.4 z m 5.28 -0.24 c -0.08 -0.08 -0.32 -0.24 -0.4 -0.48 l -0.8 -1.52 a 0.56 0.56 90 0 1 0 -0.24 V 13.65 l 0.24 -0.24 l 0.08 -0.16 c -0.16 -0.32 -0.32 -0.56 -0.64 -0.8 a 5.2 5.2 90 0 0 -1.04 -0.96 c 0.24 -0.16 0.4 -0.32 0.4 -0.72 a 0.56 0.56 90 0 0 -0.16 -0.4 c 0.16 -0.8 0.56 -1.6 0.88 -1.92 l -0.64 -0.32 c 0.16 0.32 0.16 0.64 0.08 0.8 c -0.16 -0.16 -0.32 -0.32 -0.32 -0.56 a 3.28 3.28 90 0 1 -0.32 0.8 c 0.24 -0.08 0.4 -0.16 0.56 0 c 0 0.08 -0.4 0.32 -0.8 0.24 c -0.32 -0.08 -0.56 -0.24 -0.56 -0.4 l 0.24 -0.24 c 0.16 0 0.24 0.24 0.16 0.32 c 0.16 -0.08 0.4 -0.72 0.08 -0.8 c -0.24 0 -0.48 0.32 -0.56 0.56 c 0 -0.32 -0.16 -0.56 -0.4 -0.56 c -0.32 0 -0.24 0.56 -0.16 0.8 c 0 -0.24 0.16 -0.4 0.24 -0.4 c 0.08 0 0.24 0.08 0.24 0.24 s -0.32 0.32 -0.64 0.32 c -0.24 0 -0.8 -0.08 -0.8 -0.64 c 0.08 0 0.4 0.16 0.56 0.4 a 4.32 4.32 90 0 1 0 -0.96 c -0.16 0.24 -0.4 0.32 -0.56 0.4 a 1.28 1.28 90 0 1 0.48 -0.72 H 14.88 c 0.24 0.16 0.48 0.48 0.48 0.72 c -0.16 0 -0.48 -0.16 -0.56 -0.4 v 0.96 c 0.08 -0.16 0.4 -0.32 0.56 -0.4 c 0 0.56 -0.56 0.72 -0.8 0.72 c -0.4 0 -0.64 -0.16 -0.64 -0.32 a 0.16 0.16 90 0 1 0.16 -0.24 c 0.08 0 0.24 0.08 0.24 0.32 c 0.08 -0.16 0.16 -0.8 -0.16 -0.8 c -0.24 0 -0.32 0.32 -0.4 0.64 c 0 -0.32 -0.32 -0.64 -0.56 -0.56 c -0.32 0 -0.08 0.64 0.08 0.8 c 0 -0.16 0 -0.4 0.16 -0.4 s 0.24 0.16 0.24 0.24 c 0 0.16 -0.24 0.32 -0.48 0.4 a 0.8 0.8 90 0 1 -0.88 -0.24 c 0.16 -0.16 0.32 0 0.56 0 a 3.28 3.28 90 0 1 -0.24 -0.8 l -0.4 0.56 c 0 -0.16 0 -0.56 0.16 -0.8 l -0.8 0.24 c 0.4 0.4 0.8 1.2 1.04 1.92 a 0.56 0.56 90 0 0 -0.24 0.48 c 0 0.32 0.24 0.48 0.4 0.64 c -0.4 0.24 -0.8 0.56 -1.04 0.96 c -0.48 0.48 -0.8 1.12 -1.12 1.84 l 0.56 0.64 c 0.24 0.24 0.32 0.48 0.32 0.64 c 0 0.32 0 0.48 0.24 0.64 l 0.16 0.48 h 3.52 v 3.76 c -0.16 0 -0.32 0 -0.4 0.16 l 1.2 0.48 c 0 -0.24 0 -0.4 0.16 -0.56 l -0.8 -0.08 v -3.68 h 3.44 c 0 0.56 -0.08 1.04 -0.32 1.44 a 3.92 3.92 90 0 1 -1.84 2.24 l -0.16 0.08 l -0.16 0.32 l -0.08 0.4 l 0.4 0.08 c 1.2 0.32 1.44 0.24 1.52 0.16 l 0.8 -0.64 c 0.4 -0.56 0.8 -1.2 1.04 -1.92 a 6.4 6.4 90 0 0 0.48 -2.24 v -0.4 z"></path><path fill="#fff" d="M 17.6 14.05 v 0.08 l 0.08 0.08 v 0.16 h 0.16 c 0.24 0.48 0.48 0.96 0.56 1.44 h -0.16 v 0.08 h -0.8 v -0.08 H 17.28 a 0.24 0.24 90 0 0 -0.08 -0.08 a 0.24 0.24 90 0 0 0 0.08 h -0.16 l -0.08 0.08 h -0.8 l 0.08 -0.16 l -0.16 0.08 v -1.12 l 0.16 -0.08 V 14.45 a 0.24 0.24 90 0 0 0 -0.08 a 0.24 0.24 90 0 0 0 -0.08 v -0.16 h -0.16 v -1.04 h 0.16 v -0.08 l 0.64 0.32 l 0.64 0.64 z m 0.96 1.76 c 0.08 0 0 0.16 0 0.16 a 3.84 3.84 90 0 0 -0.72 -1.76 c 0.08 0 0.16 0 0.16 -0.16 l -0.16 0.08 l -0.08 -0.08 l -0.8 -0.72 l -0.8 -0.4 h 0.16 c 0 -0.16 0 -0.16 -0.16 -0.16 h -0.16 v 0.16 h -0.08 l 0.08 0.24 v -0.08 v 1.28 l -0.16 0.08 l 0.24 0.08 v 1.44 c -0.08 0 -0.16 -0.08 0 -0.16 c -0.16 0 -0.24 0.16 -0.24 0.16 h 0.16 l -0.08 0.16 h 0.16 l 0.16 -0.08 h -0.16 h 1.04 v 0.16 c 0.16 0 0.16 -0.16 0.16 -0.16 h 0.96 l 0.16 0.16 s 0.08 0 0 -0.16 l 0.16 0.08 v -0.16 c 0.16 0 0.16 -0.16 0 -0.16 z"></path><path fill="#fff" d="M 18 15.41 h 0.08 h -0.08 V 15.25 c 0 -0.08 0 -0.08 -0.08 0 s -0.32 0 -0.32 -0.24 h 0.32 l -0.16 -0.32 l -0.16 -0.08 v -0.32 l -0.08 -0.16 v 0.48 l 0.4 0.32 l -0.08 0.08 h -0.08 a 0.08 0.08 90 0 1 -0.08 -0.08 l -0.24 -0.32 c -0.16 -0.16 -0.08 -0.32 0 -0.4 l -0.16 -0.4 v -0.08 l -0.16 -0.08 h -0.16 l -0.08 0.16 v 0.08 h 0.16 h -0.08 v 0.08 l 0.16 0.08 c 0 0.16 -0.16 0.16 -0.16 0.24 h -0.08 l -0.16 -0.16 l -0.08 -0.08 v -0.24 H 16.48 v 0.08 c 0 -0.08 -0.08 -0.16 -0.16 -0.08 h 0.16 l -0.08 0.08 v 0.08 c 0 0.08 0 0.08 0 0 a 0.08 0.08 90 0 0 0 0.16 l 0.08 0.08 c 0.08 0 0.16 0.24 0.32 0.24 l -0.16 0.16 a 0.24 0.24 90 0 1 -0.16 0.08 h -0.16 v 0.08 s -0.08 0.08 0 0.16 v -0.08 v 0.08 h 0.32 c 0.08 0 0 0 0 0 l 0.16 -0.08 h 0.16 v -0.16 c 0 0.16 0.32 0.16 0.4 0.32 h -0.24 l -0.24 0.08 l 0.16 0.24 h -0.16 c -0.08 0 -0.08 -0.16 -0.16 -0.08 a 0.08 0.08 90 0 0 -0.08 0 v 0.16 c 0 0.08 0.08 0.16 0.16 0.08 s 0 0 0.08 0 h 0.08 s 0 -0.08 0 0 h 0.16 V 15.25 l 0.16 -0.08 s 0.16 0.24 0.32 0.24 h 0.16 c 0 0.08 0 0 -0.08 0 a 0.08 0.08 90 0 0 -0.16 0.16 h 0.16 v 0.16 h 0.08 v -0.16 v 0.08 h 0.08 c 0.08 -0.08 0 -0.08 0 -0.16 h 0.08 a 0.08 0.08 90 0 0 0.08 -0.08 z m -3.2 1.92 l -0.16 0.08 l 0.08 0.08 v 0.56 l -0.56 -0.8 l 0.56 -0.16 c 0.08 0 0.16 0.08 0.08 0.24 z m -0.16 1.28 l -0.8 -1.12 l 0.24 -0.08 l 0.56 0.8 v 0.4 z m -0.08 0.56 L 13.28 17.49 h 0.32 l 0.88 1.36 v 0.32 z m -1.36 -1.68 l 1.28 1.84 c -0.64 -0.32 -1.36 -0.88 -1.28 -1.84 z m 1.92 -0.16 c 0 -0.24 -0.16 -0.4 -0.4 -0.4 c -0.16 0 -0.56 0.24 -1.04 0.24 c -0.24 0 -0.56 -0.08 -0.72 -0.24 v 0.16 a 0.16 0.16 90 0 0 -0.24 -0.16 a 0.16 0.16 90 0 0 -0.08 0.16 a 0.16 0.16 90 0 0 0.16 0.16 v 0.08 c 0 0.8 0.56 1.92 1.6 2.16 c 0.16 0 0.32 0 0.32 0.16 c 0 0.08 0 0.16 -0.16 0.16 s 0 0 0 -0.08 v -0.16 c -0.08 0 -0.24 0 -0.24 0.16 a 0.24 0.24 90 0 0 0.24 0.24 c 0.16 0 0.4 -0.08 0.32 -0.4 h 0.16 v -2.08 h 0.16 v -0.16 z m -0.88 -3.84 v -0.08 v 0.08 z m 0 -0.16 v -0.08 z m 0.64 0.32 c 0.32 0 0.4 0 0.4 -0.16 c 0 -0.24 -0.64 -0.08 -0.64 -0.24 v -0.08 c 0.4 0 0.4 -0.32 0.64 -0.32 c -0.32 0 -0.4 0.16 -0.48 0.24 l 0.08 -0.16 l -0.32 0.16 v 0.16 c 0 0.24 0.64 0 0.64 0.24 c 0 0.08 0 0.16 -0.32 0.16 c -0.08 0 -0.24 -0.16 -0.48 0 l 0.08 -0.24 v -0.16 h -0.24 v 0.4 H 14.08 v -0.32 h -0.24 h 0.08 v 0.08 c -0.08 0 -0.08 0.08 0 0.16 c 0 0.08 -0.16 0 -0.08 0 c -0.08 0.08 0 0.08 0 0.08 h 0.08 v 0.16 h -0.16 s -0.16 0.08 -0.16 0 H 13.28 l 0.16 0.08 H 13.28 c 0 0.08 0 0.08 0 0 v 0.08 l 0.08 0.08 v -0.08 h 0.64 v -0.08 h 0.16 l 0.16 -0.08 c 0.08 0 -0.08 -0.16 0.16 -0.16 l 0.08 0.16 h 0.08 h -0.24 v 0.16 h 0.16 v -0.16 h 0.08 c 0.16 0 0 0 0 0 h 0.16 c 0 0.08 0 0 0 0 l -0.08 0.16 h 0.16 V 13.65 h -0.08 h 0.08 z m -1.28 0.88 V 14.45 h 0.08 v 0.08 h -0.08 z m 0.08 -0.16 h -0.08 h 0.08 z m 0 0 h 0.16 l -0.08 0.08 z m 1.6 0.24 L 14.88 14.45 h -0.8 c 0 -0.16 0.16 -0.16 0.32 -0.16 c 0.32 0.16 0.72 0 0.88 0 c -0.16 -0.16 -0.4 0 -0.64 0 l 0.24 -0.08 h -0.48 c -0.24 0 -0.4 0 -0.4 0.16 c 0 0.24 0.64 0.08 0.88 0.08 h 0.24 c 0 0.16 -0.24 0.16 -0.32 0.16 c -0.16 0 -0.72 -0.16 -1.04 0 a 0.24 0.24 90 0 0 0.08 -0.24 v -0.16 h -0.08 l -0.08 -0.08 h -0.16 v 0.08 l -0.08 0.16 v 0.16 h -0.08 L 13.28 14.45 v -0.24 l -0.08 -0.08 v 0.08 h -0.08 s 0 -0.08 -0.08 0 v 0.16 c 0 0.08 0 0.08 0 0 c -0.16 0.08 0 0.16 0 0.16 h 0.08 l 0.16 0.08 s 0 0.08 0.08 0 v 0.16 h -0.4 c 0 -0.08 -0.08 -0.08 -0.08 0 a 0.08 0.08 90 0 0 -0.08 0.08 s 0 0.08 0.08 0 v 0.16 l 0.08 -0.16 l 0.08 0.08 h 0.56 l 0.16 -0.16 c 0.32 0 0.16 -0.16 0.48 -0.16 h 0.08 v 0.16 h 0.08 c -0.08 0 -0.08 -0.08 -0.16 0 a 0.08 0.08 90 0 0 -0.16 0 h 0.08 v 0.08 c 0 0.08 0.08 0.16 0.16 0.08 l 0.08 -0.08 h 0.16 v -0.16 h 0.4 v 0.08 H 14.88 a 0.08 0.08 90 0 0 -0.08 0.08 h 0.08 v 0.08 h 0.24 l -0.08 -0.08 v -0.32 h -0.32 h 0.56 z M 13.28 15.65 v -0.16 h 0.08 v 0.16 H 13.28 z m 0.08 -0.24 z m 0 0 h 0.16 v 0.08 h -0.08 z m 1.76 0.24 l -0.32 -0.08 h -0.96 c 0 -0.16 0.24 -0.08 0.4 -0.08 h 0.88 c -0.16 -0.16 -0.4 0 -0.56 0 l 0.24 -0.08 h -0.56 l -0.48 0.08 c 0 0.24 0.8 0.16 1.04 0.16 h 0.24 l -0.32 0.08 h -1.28 s 0.16 -0.08 0.08 -0.16 v -0.16 H 13.28 V 15.25 l -0.08 0.08 v 0.32 h -0.16 l -0.08 -0.16 v -0.16 l -0.16 -0.08 v 0.32 c 0 0.16 -0.08 0.08 0 0 a 0.08 0.08 90 0 0 0 0.16 h 0.08 l 0.16 0.16 h 0.08 v 0.16 h -0.32 v -0.08 h -0.16 l 0.16 0.08 l -0.16 -0.08 H 12.48 c 0 0.08 0 0.08 0.16 0 c 0 0.08 -0.08 0.08 0 0.08 h 0.64 l 0.08 -0.08 l 0.16 -0.08 c 0.4 0 0.16 -0.16 0.56 -0.16 l 0.08 0.08 c 0 0.08 0 0 -0.16 0 a 0.08 0.08 90 0 0 -0.08 0 h 0.08 c 0 0.08 -0.08 0 0 0.16 l 0.08 0.08 h 0.08 v -0.08 h 0.24 v -0.16 h -0.08 h 0.56 c 0 0.08 0 0 0 0 h -0.08 a 0.08 0.08 90 0 0 -0.08 0.16 h 0.08 v 0.08 h 0.08 v -0.08 l 0.16 0.08 l -0.08 -0.16 v -0.24 h -0.32 h 0.48 z m 1.52 1.6 c 0 -0.08 0 -0.08 0 0 v -0.16 v 0.16 z m 0 -0.32 z m 0.08 0 l 0.16 0.08 h -0.08 z m 1.76 0.48 l -0.08 -0.08 H 18.08 l 0.4 -0.16 l -0.32 -0.08 h -0.96 c 0 -0.16 0.24 -0.08 0.4 -0.08 h 0.88 c -0.24 -0.08 -0.4 0 -0.64 0 l 0.32 -0.08 h -0.56 l -0.48 0.08 c 0 0.24 0.8 0.16 0.96 0.16 h 0.24 l -0.32 0.08 h -1.2 s 0.08 -0.08 0 -0.16 h 0.08 V 16.85 H 16.48 v 0.32 h -0.16 l -0.08 -0.08 V 16.85 l -0.08 -0.08 v 0.08 h -0.08 v 0.08 c -0.08 0 -0.08 0 0 0.08 c 0 0.16 -0.16 0.08 -0.08 0 a 0.08 0.08 90 0 0 0.08 0.16 l 0.24 0.16 l 0.08 0.08 h -0.48 l 0.16 0.08 h -0.16 a 0.08 0.08 90 0 0 -0.08 0 c 0 0.08 0 0.16 0.16 0 c 0 0.08 -0.08 0.16 0 0.16 h 0.48 l 0.08 -0.08 h 0.08 v -0.08 c 0.48 0 0.24 -0.16 0.64 -0.08 l 0.08 0.08 h 0.08 h -0.16 a 0.08 0.08 90 0 0 -0.16 0 h 0.08 v 0.16 s 0 0.08 0.08 0 s 0 0 0.08 0 h 0.16 v -0.16 h 0.32 c 0 -0.08 0 0 0.08 0 h -0.08 a 0.08 0.08 90 0 0 0 0.08 v 0.08 h 0.24 v -0.16 h 0.4 z m -1.76 0.72 h -0.08 v -0.08 v 0.08 z m 0 -0.16 h -0.08 z m 0.64 0 v 0.08 c 0.32 0.08 0.64 -0.16 0.8 0 c -0.16 -0.16 -0.32 0 -0.56 0 l 0.32 -0.16 h -0.48 c -0.16 0 -0.32 0 -0.32 0.16 c 0 0.24 0.64 0.08 0.8 0.08 l 0.16 0.08 l -0.32 0.08 h -0.96 s 0.08 -0.16 0 -0.16 h 0.08 v -0.16 h -0.16 v -0.08 h -0.08 l -0.16 0.08 v 0.32 h -0.16 v -0.24 h -0.16 h 0.08 v 0.08 c -0.08 0 -0.08 0 0 0.08 c 0 0.08 -0.08 0 -0.08 0 a 0.08 0.08 90 0 0 0.08 0.16 h 0.24 v 0.16 h -0.4 c 0 -0.08 0 -0.08 0 0 h -0.08 s -0.08 0 0 0.08 c 0 0 0 0.08 0 0 v 0.08 l 0.08 0.08 V 18.45 h 0.32 l 0.08 0.08 l 0.16 -0.08 l 0.08 -0.08 h 0.08 c 0.24 0 0 -0.24 0.4 -0.16 l 0.08 0.08 h 0.08 h -0.24 a 0.08 0.08 90 0 0 -0.08 0 h 0.08 v 0.4 h 0.16 V 18.45 h 0.16 v -0.16 H 17.28 h 0.48 c 0 0.08 -0.08 0 -0.08 0 a 0.08 0.08 90 0 0 -0.16 0.16 h 0.16 s -0.08 0 0 0 v 0.08 l 0.08 -0.08 l 0.08 0.08 v -0.24 h 0.08 v -0.16 h -0.4 l 0.4 -0.16 l -0.24 -0.08 h -0.72 h 0.4 z m -0.8 1.28 v -0.08 H 16.48 v -0.08 h 0.08 v 0.16 z m 0 -0.24 H 16.48 a 0.4 0.4 90 0 1 0.08 0 z m 0.08 0 v 0.08 z m 0.56 0 c 0.32 0.16 0.64 0 0.8 0 h -0.56 h 0.24 h -0.48 c -0.08 0 -0.24 0 -0.24 0.16 s 0.8 0 0.8 0.08 l -0.32 0.08 h -0.8 l 0.16 -0.16 v -0.16 H 16.48 v 0.4 l -0.16 -0.16 v -0.24 h -0.16 v 0.24 c -0.08 0 0 0.08 0 0 l 0.08 0.08 l 0.08 0.16 l 0.16 0.08 h -0.16 v 0.08 h -0.32 v 0.08 h -0.08 s -0.08 0 0 0 c 0 0.08 0 0.16 0 0 v 0.16 h 0.08 v -0.08 h 0.4 l 0.08 0.08 l 0.16 -0.08 l 0.08 -0.24 h 0.24 v 0.16 c -0.16 0 -0.16 -0.16 -0.24 -0.08 v 0.32 h 0.24 v -0.16 l -0.08 -0.24 h 0.24 l 0.08 0.08 h -0.16 v 0.32 l 0.08 -0.08 h 0.08 v -0.16 h 0.08 v -0.08 l -0.08 -0.16 l 0.4 -0.08 c 0 -0.24 -0.72 0 -0.72 -0.16 l 0.4 -0.16 z M 5.28 6.21 s 0 -0.16 -0.16 -0.16 s -0.16 0.16 -0.16 0.16 c 0 0.16 0 0.24 0.16 0.24 c 0.08 0 0.16 -0.08 0.16 -0.24 z m 0 -0.4 c 0 -0.16 -0.16 -0.16 -0.24 -0.16 c -0.08 0 -0.16 0 -0.16 0.16 s 0 0.16 0.16 0.16 c 0.08 0 0.16 0 0.16 -0.16 z m 0 -0.24 c 0.16 0 0.24 0 0.24 -0.16 s -0.08 -0.16 -0.24 -0.16 c 0 0 -0.16 0 -0.16 0.16 s 0.08 0.16 0.16 0.16 z m 0.48 0 c 0.08 0 0.16 -0.08 0.16 -0.24 s 0 -0.16 -0.16 -0.16 l -0.16 0.16 l 0.16 0.24 z m 2.08 -0.32 h 0.24 a 0.16 0.16 90 0 0 0 -0.24 a 0.16 0.16 90 0 0 -0.24 0 a 0.16 0.16 90 0 0 0 0.24 z m 0 -0.4 a 0.16 0.16 90 0 0 0 -0.24 a 0.16 0.16 90 0 0 -0.32 0 a 0.16 0.16 90 0 0 0 0.24 h 0.24 z m -0.56 -0.08 a 0.16 0.16 90 0 0 0 -0.24 a 0.16 0.16 90 0 0 -0.24 0 a 0.16 0.16 90 0 0 0 0.24 h 0.24 z m -0.4 0.24 a 0.16 0.16 90 0 0 0 -0.24 a 0.16 0.16 90 0 0 -0.24 0 a 0.16 0.16 90 0 0 0 0.24 a 0.16 0.16 90 0 0 0.24 0 z M 5.76 4.85 l 0.16 0.32 l 0.16 -0.16 l 0.08 0.4 c 0 0.08 0.08 0.16 0.24 0.16 l 0.16 -0.16 l -0.08 -0.24 l -0.24 -0.24 h 0.32 l -0.08 -0.32 l -0.24 0.16 v -0.32 l -0.32 0.08 l 0.24 0.32 z"></path><path fill="#fff" d="M 7.84 5.33 l 0.08 0.32 l -0.16 -0.24 v 0.48 l 0.16 -0.16 c 0 0.24 -0.08 0.4 -0.24 0.4 c 0 0 -0.16 0 -0.16 -0.16 c 0 -0.08 0 -0.24 0.16 -0.08 c 0 -0.24 -0.16 -0.24 -0.32 -0.16 c 0.16 -0.24 0.08 -0.4 -0.08 -0.48 c -0.16 0.16 -0.08 0.4 0.08 0.48 c -0.16 0 -0.32 0.08 -0.16 0.24 c 0 -0.16 0.16 -0.08 0.16 0 c 0 0.16 0 0.24 -0.24 0.32 c -0.24 0.08 -0.32 0 -0.32 -0.16 h 0.24 v -0.32 l -0.32 0.24 l 0.08 -0.4 l -0.48 0.24 l 0.32 0.24 h -0.4 l 0.24 0.32 c 0 -0.24 0.08 -0.32 0.16 -0.32 c 0 0.16 0.08 0.32 -0.16 0.4 H 6.08 c 0 -0.08 0 -0.24 0.16 -0.16 c 0 -0.24 -0.24 -0.24 -0.32 0 c 0 -0.32 0 -0.48 -0.32 -0.48 c 0 0.24 0 0.32 0.24 0.48 c -0.08 0 -0.24 0.08 0 0.24 c 0 -0.08 0 -0.16 0.16 0 l -0.08 0.24 c -0.08 0 -0.24 0 -0.4 -0.16 h 0.16 l -0.24 -0.32 v 0.24 l -0.08 -0.24 l -0.24 0.16 l 0.72 0.64 l 1.04 -0.48 a 7.52 7.52 90 0 1 1.2 -0.4 V 5.33 z m 0.56 2.4 c -0.24 0.24 -0.56 0 -0.8 -0.24 l 1.04 -0.48 c -0.24 0.4 0 0.56 -0.24 0.72 z m -0.08 2.56 c -0.32 0.16 -0.56 -0.16 -0.64 -0.32 V 9.65 c 0.08 -0.16 0.16 -0.24 0 -0.4 c 0 -0.24 -0.24 -0.16 -0.48 0 c 0.16 -0.24 0.16 -0.4 0 -0.4 s -0.16 0.32 -0.32 0.24 V 8.85 c 0 -0.16 0 -0.16 0.16 -0.24 l 0.96 -0.32 h 0.24 s 0.24 0.08 0.16 0.16 c 0 0.16 -0.24 -0.08 -0.4 0 c 0 0.08 0 0.24 0.24 0.24 c -0.24 0.16 -0.48 0.24 -0.4 0.4 c 0.08 0.16 0.16 0.24 0.4 0.24 l 0.24 0.32 c 0.16 0.24 0.16 0.56 -0.16 0.8 z m -1.76 -1.84 c -0.24 0 -0.24 -0.24 -0.72 -0.32 l 1.12 -0.4 c 0 0.32 -0.08 0.64 -0.4 0.72 z M 11.68 16.69 c 0 -0.16 -0.32 -0.4 -0.32 -0.64 c 0 -0.32 0 -0.56 -0.32 -0.88 l -1.68 -1.92 s 0.24 0 0.4 0.16 l 0.56 0.56 A 5.6 5.6 90 0 1 11.68 12.05 l 0.16 -0.24 l -0.64 0.24 c 0 -0.32 0 -0.56 -0.16 -0.8 c 0 -0.4 0 -0.96 -0.96 -1.6 c 0.48 0.08 0.8 0.56 1.12 0.24 c -0.32 0 -0.32 -0.8 -1.6 -1.36 c 0.48 0 0.88 0.72 1.44 0.32 c -0.56 -0.08 -0.72 -1.04 -1.6 -1.28 c 0.32 0 0.64 0.16 0.88 -0.24 c -0.32 0.08 -0.48 -0.16 -0.8 -0.24 V 6.21 a 1.12 1.12 90 0 0 -0.8 0.32 c 0 -0.24 -0.16 -0.32 -0.4 -0.24 V 6.45 l -1.2 0.32 l -1.04 0.56 c -0.08 0.08 -0.16 0 -0.24 -0.08 c -0.16 0.08 -0.24 0.24 -0.16 0.4 a 1.6 1.6 90 0 0 -0.8 0.24 c 0 0.32 0.32 0.56 0.64 0.8 c -0.56 0.48 -0.08 1.04 -0.56 1.6 c 0.72 0 0.56 -1.04 0.96 -1.2 c 0 0.8 -0.48 0.8 -0.48 1.6 c 0 0.4 0.24 0.8 0 1.12 c 0.64 -0.16 0.48 -1.52 0.8 -1.84 c 0.16 0.16 0.08 0.4 0 0.64 c -0.16 0.56 0 1.44 -0.32 1.76 c 0.64 -0.08 0.72 -1.04 1.2 -1.44 c -0.4 0.88 -0.8 2.72 -1.44 3.68 c -1.04 1.44 -1.68 3.12 -2.64 3.12 c -0.4 0 -0.8 -0.24 -0.8 -0.8 c 0 -1.6 2.8 -2.64 2.8 -4.32 c 0 -0.8 -0.64 -1.12 -1.04 -1.12 a 1.6 1.6 90 0 0 -0.8 0.4 l -0.32 -0.08 c -0.96 0 -0.8 1.76 -1.6 1.76 c 0.32 0.16 0.96 -0.24 1.28 -0.72 c -0.16 1.12 -1.76 0.8 -1.6 2.24 c 0.16 -1.12 2.8 -0.96 2.8 -2.56 l -0.24 -0.48 l 0.56 -0.16 c 0.32 0 0.56 0.24 0.56 0.72 c 0 1.36 -2.72 2.56 -2.72 4.32 c 0 0.32 0.08 0.56 0.24 0.8 c -0.16 0 -0.4 0 -0.56 -0.16 c 0 0.48 0.64 0.8 1.04 0.48 h 0.24 c -0.08 0.4 -0.56 0.48 -0.8 0.48 c 0.8 0.56 1.92 -0.16 1.84 -0.8 c 0.56 -0.32 0.8 -1.12 1.2 -1.6 v 0.4 c -0.4 0.64 -0.8 1.28 -0.88 2.24 c -0.08 0.8 -0.48 1.44 -1.04 1.44 h -0.4 c -0.16 0.08 0 0.24 0 0.4 c 0 0.24 -0.48 0.48 -0.48 1.12 c 0 0.32 0.24 0.72 0.16 0.88 c 0.16 -0.08 0.4 -0.4 0.48 -0.8 c 0.16 0.96 -0.4 0.96 0 1.68 c 0 -0.24 0.32 -0.4 0.56 -0.24 s 0 0.16 0 0.32 c -0.16 0.08 -0.32 0.72 0.24 0.64 c -0.08 0 -0.08 -0.24 0.16 -0.24 h 0.88 c 0.24 0 0.32 -0.24 0.56 -0.24 s 0.24 0.16 0.16 0.24 c 0.32 0 0.4 -0.24 0.4 -0.4 s -0.16 -0.24 0 -0.32 c 0 -0.08 0.4 0 0.24 0.32 c 0.16 0 0.32 -0.16 0.32 -0.4 s -0.32 -0.4 -0.56 -0.32 c 0 -0.16 -0.24 -0.24 -0.48 -0.24 c -0.4 0 -0.4 0.4 -0.64 0.4 c -0.48 0 -0.96 -0.64 -0.96 -1.68 c 0 -0.64 0.64 -0.8 1.04 -0.96 c 0.48 -0.16 1.2 -0.64 1.68 -1.44 c 0.32 -0.56 0.4 -1.2 0.32 -2 c 0.56 0.32 0.64 0.8 0.64 1.2 c 0 0.48 -0.24 0.72 -0.4 0.8 c -0.24 0 -0.24 0 -0.24 0.16 l 0.08 0.24 c 0.24 0.08 0.16 0.32 0.24 0.56 c 0.08 0.24 0.32 0.56 0.64 0.8 V 20.05 c 0.48 0.24 0.08 1.2 1.04 1.2 c -0.24 -0.08 -0.16 -0.32 0 -0.4 l 0.32 0.32 c 0.16 0.24 0.16 0.24 0.56 0.24 c 0.4 0 0.24 -0.16 0.48 -0.16 s 0.16 0.32 0.08 0.48 c 0.4 -0.16 0.48 -0.4 0.4 -0.72 c 0.32 -0.16 0.56 0 0.56 0.24 c 0.4 -0.32 0 -0.8 -0.24 -0.8 c 0 -0.08 -0.16 -0.24 -0.32 -0.24 h -0.4 c -0.16 0 -0.24 0.24 -0.4 0.24 c -0.56 0 -1.76 -1.04 -1.76 -1.52 c 0 -0.4 1.12 -0.72 1.12 -1.36 c 0 -0.96 -0.88 -1.28 -1.6 -1.84 c 0.24 -0.32 0.96 -0.4 1.44 -0.08 c 0 -0.32 0.24 -0.24 0.32 -0.64 c 0.16 0.32 0 0.64 0.08 0.8 c 0.16 -0.16 0.48 -0.16 0.48 -0.56 c 0.08 0.24 -0.16 0.72 0.08 0.96 c 0 -0.24 0.16 -0.32 0.32 -0.32 s 0.16 0.08 0.16 0.24 c 0 0.32 -0.48 0.16 -0.48 0.56 c 0 0.16 0.24 0.24 0.24 0.4 c 0 0.08 -0.16 0.24 -0.4 0.08 l 0.4 0.08 c 0.16 0 0.4 -0.16 0.48 -0.32 c 0.08 0.24 0 0.56 -0.16 0.56 c 0.16 0.16 0.64 0 0.56 -0.56 c 0.32 0 0.48 0.24 0.24 0.56 c 0.24 -0.08 0.48 -0.16 0.48 -0.4 s -0.24 -0.24 -0.08 -0.48 z m 17.6 4.4 c 0 -0.32 0.16 -0.64 0.48 -0.64 c 0.32 0 0.64 0.32 0.64 0.64 a 0.56 0.56 90 0 1 -0.64 0.56 a 0.56 0.56 90 0 1 -0.56 -0.56 z m -0.24 0 c 0 0.4 0.4 0.8 0.8 0.8 s 0.8 -0.4 0.8 -0.8 a 0.8 0.8 90 0 0 -1.36 -0.56 a 0.8 0.8 90 0 0 -0.24 0.56 z M 26.56 22.45 a 0.32 0.32 90 0 1 -0.32 -0.32 l 0.08 -0.16 l 0.4 -0.08 c 0.16 0 0.32 0.16 0.32 0.32 s -0.16 0.32 -0.48 0.24 z m -0.32 -0.72 l -0.16 0.32 a 0.4 0.4 90 0 0 0.16 0.4 l 0.32 0.16 h 0.48 a 0.48 0.48 90 0 0 0.24 -0.32 c 0 -0.32 -0.16 -0.56 -0.48 -0.64 l -0.56 0.08 z M 22.08 11.49 l 0.16 -0.32 a 0.48 0.48 90 0 1 0.32 -0.08 h 0.16 a 0.32 0.32 90 0 1 0 0.24 c 0 0.08 0 0.16 -0.16 0.24 H 22.08 v -0.08 z m 0 -0.48 c -0.24 0.16 -0.24 0.48 -0.08 0.72 c 0.16 0.16 0.4 0.16 0.72 0 a 0.64 0.64 90 0 0 0.24 -0.4 l -0.08 -0.32 l -0.32 -0.08 l -0.4 0.08 z m 3.68 10.4 a 0.24 0.24 90 0 1 -0.24 -0.08 l -0.08 -0.32 c 0 -0.16 0 -0.24 0.16 -0.32 a 0.24 0.24 90 0 1 0.16 -0.08 c 0.16 0 0.24 0.16 0.24 0.4 l -0.08 0.32 h -0.16 z m -0.32 -0.96 a 0.64 0.64 90 0 0 -0.16 0.48 c 0 0.16 0 0.4 0.16 0.48 l 0.32 0.16 a 0.4 0.4 90 0 0 0.32 -0.16 a 0.64 0.64 90 0 0 0.16 -0.48 c 0 -0.16 0 -0.32 -0.16 -0.4 l -0.32 -0.16 l -0.32 0.08 z m -3.6 -5.36 c -0.24 -0.16 -0.32 -0.32 -0.24 -0.48 l 0.16 -0.08 a 0.4 0.4 90 0 1 0.32 0 l 0.24 0.24 v 0.16 l -0.16 0.16 h -0.32 z m -0.16 -0.8 l -0.24 0.24 c -0.08 0.24 0 0.56 0.32 0.64 c 0.16 0.08 0.4 0.16 0.48 0 c 0.16 0 0.24 0 0.24 -0.16 c 0 -0.08 0.08 -0.16 0 -0.32 c 0 -0.16 -0.16 -0.32 -0.32 -0.4 a 0.72 0.72 90 0 0 -0.48 0 z"></path><path fill="#fff" d="M 27.12 17.81 c -0.08 0.16 -0.32 0.24 -0.48 0.08 v -0.48 c 0.16 -0.16 0.32 -0.24 0.48 -0.16 c 0.16 0.16 0.16 0.32 0 0.56 z m -0.8 1.44 c -0.16 0.16 -0.4 0.24 -0.56 0.08 v -0.48 c 0.16 -0.16 0.32 -0.24 0.48 -0.16 c 0.16 0.16 0.16 0.32 0 0.56 z m -3.2 -7.84 l 0.4 -1.04 l 0.32 0.16 l -0.32 0.24 a 0.32 0.32 90 0 0 0.32 0 l -0.16 0.32 a 0.64 0.64 90 0 0 -0.16 -0.16 c -0.08 0.24 0 0.32 0.24 0.4 c 0.16 0.16 0.32 0.16 0.4 0 c 0 0 0 -0.24 -0.24 -0.16 c 0 -0.16 0 -0.24 0.24 -0.24 c 0 0 0.16 0 0.16 0.16 c 0 -0.24 0.16 -0.48 0.4 -0.56 c 0.08 0.24 0 0.48 -0.24 0.72 h 0.32 l -0.08 0.32 c 0 -0.16 -0.24 -0.24 -0.32 0 l 0.16 0.32 c 0.24 0.08 0.48 0 0.56 -0.16 h -0.32 l 0.24 -0.4 c 0 0.08 0 0.24 0.16 0.24 V 11.25 l 0.48 0.32 l -0.32 0.16 h 0.24 l -0.32 0.4 l -0.08 -0.32 c -0.16 0.24 -0.08 0.4 0.16 0.56 c 0.16 0.08 0.32 0.16 0.4 0 c 0 -0.08 0 -0.32 -0.24 -0.24 c 0 -0.16 0.08 -0.24 0.16 -0.24 c 0.16 0 0.24 0.08 0.24 0.24 c 0 -0.32 0.16 -0.48 0.48 -0.56 c 0 0.32 -0.08 0.48 -0.32 0.64 h 0.24 c 0.08 0.16 0 0.32 -0.08 0.4 c 0 -0.16 -0.32 -0.24 -0.32 -0.08 c -0.08 0 0 0.16 0.24 0.32 c 0.08 0 0.24 0.16 0.48 0 a 0.48 0.48 90 0 0 -0.32 -0.16 l 0.24 -0.24 l 0.16 0.24 v -0.4 l 0.32 0.24 l -0.72 0.8 z m 3.76 4.24 l 0.08 -0.16 l 0.16 -0.08 c 0.16 0 0.24 0 0.32 0.16 l 0.16 0.32 v 0.16 h -0.56 l -0.16 -0.4 z m 1.44 6.32 a 0.56 0.56 90 0 1 0.16 -0.32 h 0.56 a 0.4 0.4 90 0 1 0 0.24 a 0.56 0.56 90 0 1 -0.16 0.32 h -0.56 v -0.24 z m -6.56 -9.52 a 0.4 0.4 90 0 1 -0.08 0.32 h -0.16 c -0.16 0 -0.24 -0.08 -0.24 -0.32 a 0.4 0.4 90 0 1 0.16 -0.32 h 0.24 a 0.64 0.64 90 0 1 0.08 0.32 z m 2 -4.16 c 0.08 -0.16 0 -0.48 0.4 -0.48 l 0.56 0.24 c -0.32 0 -0.72 0.08 -0.96 0.24 z m 5.92 5.2 c 0.24 0.72 0.8 0.96 1.12 0.8 c -0.8 -0.16 -0.16 -1.6 -1.28 -1.6 h -0.16 c -0.16 -0.16 -0.4 -0.24 -0.72 -0.24 c -0.4 0 -1.2 0.48 -1.2 1.36 c 0 2 2.24 2.16 2.24 4 c 0 0.48 -0.4 0.8 -0.8 0.8 s -0.72 -0.48 -1.04 -1.12 c -0.08 -0.32 -0.48 -0.8 -0.8 -1.28 c 0.08 0.08 0.24 0.16 0.32 0.08 h 0.32 a 0.48 0.48 90 0 0 0.16 -0.4 l -0.16 -0.48 a 0.8 0.8 90 0 0 -0.56 -0.16 l -0.24 0.08 a 0.48 0.48 90 0 0 -0.16 0.32 v 0.24 c -0.48 -0.64 -0.96 -1.28 -0.96 -1.6 c 0 -0.32 0.24 -0.64 0.48 -0.96 h 0.16 l 0.72 -0.8 l 0.08 -0.08 l -0.24 -0.24 l 0.16 -0.48 c 0.08 0.32 0.32 0.48 0.48 0.4 c -0.16 -0.24 0.16 -0.8 0 -1.6 c 0.16 0.4 0.48 0.48 0.64 0.48 c -0.48 -0.48 0.16 -1.12 -0.48 -2.08 h 0.4 C 27.68 8.85 27.84 8.05 26.88 7.73 c 0.24 0 0.4 -0.16 0.4 -0.32 c -0.32 0.24 -0.56 -0.4 -1.44 -0.32 c -0.08 -0.4 -0.4 -0.8 -0.8 -0.88 c 0.08 0.24 0 0.48 0 0.64 L 21.92 4.05 l -0.16 -0.08 V 4.05 L 24.48 7.25 l -0.64 0.24 c -0.16 0 -0.24 0.16 -0.24 0.32 a 5.92 5.92 90 0 0 -1.04 0.72 c -0.16 0.08 -0.32 0.16 -0.16 0.48 c 0 0.08 -0.08 0.4 0.24 0.16 c 0.24 -0.08 0.8 -0.4 0.88 -0.24 c 0 0.16 -0.24 0.24 -0.4 0.32 l -0.4 0.32 h 0.24 l 0.08 0.24 c 0.08 0 0.24 -0.16 0.32 -0.08 c 0 0 0 0.4 -0.16 0.48 c 0.32 0 0.48 -0.32 0.48 -0.56 l 0.16 -0.32 v 0.4 c 0.16 0 0.32 -0.24 0.32 -0.56 l 0.16 -0.16 c 0.16 0 0.32 0.32 0.56 0.32 c 0.56 0 0.8 -0.4 0.8 -0.64 a 0.56 0.56 90 0 0 0 -0.4 c 0.16 0.16 0.24 0.4 0.24 0.56 c 0 0.72 -1.28 1.04 -1.84 1.6 l -0.64 -0.24 V 10.45 l -0.08 0.08 c 0 0.24 -0.16 0.64 -0.32 0.88 v 0.16 c -0.32 0.48 -0.56 0.96 -0.64 1.6 a 4 4 90 0 0 -0.4 -0.4 v -0.24 c 0 -0.16 0 -0.24 -0.16 -0.4 l -0.24 -0.16 a 0.4 0.4 90 0 0 -0.32 0.16 h -0.08 l -0.56 -0.48 a 0.32 0.32 90 0 0 -0.32 -0.08 h -0.24 l -0.24 0.08 l -0.4 0.32 l 0.24 0.24 l 0.08 0.16 l 0.16 -0.08 c 0.08 -0.16 0.16 -0.16 0.24 -0.16 l 0.24 0.16 l 0.96 1.2 H 20.48 c -0.16 0 -0.16 0 -0.32 0.24 l -0.16 0.16 v 0.4 c 0.24 0.24 0.64 1.04 0.8 1.44 c 0.16 0.32 0.32 0.4 0.64 0.48 l 0.8 0.48 v -0.24 l -0.4 -0.24 c -0.16 0 -0.16 -0.08 0 -0.08 l 0.64 0.24 c 0 -0.32 -0.32 -0.56 -0.48 -0.8 h -0.48 l -0.08 0.16 c -0.08 0 -0.16 0 -0.16 -0.16 c 0 0 0.16 -0.08 0.16 -0.24 s -0.24 -0.16 -0.4 -0.16 l -0.4 -0.8 c -0.16 0 0 -0.16 0 -0.24 c 0.16 -0.08 0.48 0.08 1.04 0.16 h 0.8 c 0 0.72 0.32 1.36 1.28 1.6 a 1.6 1.6 90 0 1 1.2 0.96 c -2 0 -2.32 0.72 -2.32 1.44 c 0 0.8 0.72 0.8 0.72 1.36 s -1.6 0.8 -2.16 0.88 c -0.4 0 -0.64 0.16 -0.88 0.32 l -0.8 0.8 h 0.32 l 0.32 -0.32 l 0.16 -0.16 v 0.24 l -0.24 0.32 c 0.96 0.08 1.04 -0.24 1.04 -0.4 s -0.24 -0.24 -0.16 -0.4 c 0.16 -0.08 0.24 0 0.4 0.16 s 0.16 0.24 0.4 0.08 l 2.4 -0.96 c 0.24 -0.08 0.16 -0.24 0 -0.32 l -0.16 -0.56 c 0 -0.64 0.4 -0.8 1.12 -0.8 v 0.32 c 0 0.96 1.44 2 1.84 2 c 0.16 0 0.4 -0.16 0.48 0.4 c 0 0.48 0.08 0.8 0 1.28 c 0 0.56 -0.24 0.64 -0.48 0.8 s -0.64 0.88 -0.8 1.04 c 0.16 0.08 0.32 0.08 0.4 -0.24 l 0.32 -0.48 l -0.24 0.8 c 0.4 0.16 1.04 -0.24 1.04 -0.48 c 0 -0.32 -0.24 -0.24 -0.24 -0.4 c 0 -0.08 0.08 -0.24 0.24 -0.24 c 0.16 0 0.24 0.16 0.24 0.24 c 0.16 -0.16 0.32 -0.32 0.32 -0.72 v -0.48 c 0.08 0.16 0.24 0.24 0.4 0.24 h 0.4 a 0.72 0.72 90 0 0 0.24 -0.48 v -0.08 a 0.64 0.64 90 0 0 0 -0.32 l -0.32 -0.16 a 0.64 0.64 90 0 0 -0.48 0.16 c -0.16 0 -0.24 0.16 -0.32 0.32 a 29.6 29.6 90 0 1 0 -1.2 l -0.08 -0.56 l -0.4 0.16 c -0.16 0 -0.56 -0.4 -0.56 -0.8 c 0 -0.48 0.4 -1.04 0.4 -1.6 c 0 -0.16 0.16 -0.32 0.24 -0.16 l 0.4 0.8 c -0.16 0.72 0.72 1.44 1.36 0.8 c -0.32 0.08 -0.56 -0.16 -0.72 -0.48 h 0.32 c 0.24 0.32 0.96 0.32 1.12 -0.48 c -0.08 0.16 -0.32 0.32 -0.56 0.24 c 0.24 -0.16 0.4 -0.56 0.4 -0.88 c 0 -1.92 -2.24 -2.16 -2.24 -3.84 c 0 -0.64 0.56 -1.04 0.88 -1.04 l 0.4 0.08 c -0.16 0.16 -0.24 0.4 -0.24 0.64 c 0.08 1.36 2.24 1.36 2.32 2 c 0.24 -1.12 -1.36 -0.8 -1.44 -2.16 z"></path></svg>