<svg height="260" viewBox="0 0 260 260" width="260" xmlns="http://www.w3.org/2000/svg"><g transform="translate(14 32)"><path d="m100.587793 31.9988364c-1.0931932 2.1902868-2.1925975 3.2854302-1.9192993 4.9343676.2732983 1.6427151 1.9255103 2.7378585 2.7454053 4.386796.819895-1.9165009 1.913088-3.2916526 1.913088-4.9343677-.273298-1.1013657-2.465896-3.2916525-2.732983-4.3867959zm28.497555 0c1.093193 2.1902868 2.192597 3.2854302 1.919299 4.9343676-.273298 1.6427151-1.92551 2.7378585-2.739194 4.386796-.826106-1.9165009-1.92551-3.2916526-1.92551-4.9343677.279509-1.1013657 2.198809-3.2916525 2.745405-4.3867959zm-44.9389301-1.1013658c.5131007.0155209 1.0100004-.1809892 1.3741554-.5434403.3641551-.3624512.5635268-.858955.5513551-1.3730606.0139084-.5151717-.1846969-1.0133211-.54905-1.3771466-.3643526-.3638254-.8622542-.5611746-1.3764605-.5455768-.5120808-.0121185-1.0066985.186768-1.3683075.5501985-.361609.3634304-.5585372.8595727-.5447804 1.3725249 0 1.0951434.8198948 1.9165009 1.9130879 1.9165009zm1.3789139 2.7440809c.0121717-.5141057-.1872-1.0106094-.551355-1.3730606s-.8610547-.5589612-1.3741555-.5434404c-.5120385-.0137813-1.0072972.183498-1.3700808.5457524-.3627829.3622542-.5613155.8577544-.5492183 1.3707486 0 1.0951434.8261061 1.9227233 1.9255105 1.9227233.5120808.0121185 1.0066985-.186768 1.3683075-.5501984.361609-.3634305.5585372-.8595727.5447803-1.3725249zm.8136835 4.6605818c.0120282-.5118865-.1856639-1.0063883-.5470779-1.368447s-.8550354-.5601034-1.3660099-.548054c-.5131008-.0155208-1.0100005.1809892-1.3741555.5434404s-.5635267.8589549-.551355 1.3730606c0 1.0951434.8261061 1.9227233 1.9255105 1.9227233.5120808.0121185 1.0066985-.186768 1.3683075-.5501984.361609-.3634305.5585371-.8595727.5447803-1.3725249zm8.4970914-16.4520405c.5120386.0137814 1.0072973-.183498 1.3700809-.5457523.3627829-.3622543.5613155-.8577544.5492183-1.3707486.0139084-.5151717-.1846968-1.0133211-.54905-1.3771465-.3643526-.3638255-.8622542-.5611747-1.3764605-.5455768-.5120808-.0121185-1.0066985.186768-1.3683075.5501984-.361609.3634305-.5585372.8595727-.5447803 1.3725249 0 .8213576.8198947 1.9165009 1.9192991 1.9165009zm-4.6584931 1.3751517c.5131448.0138544 1.0094023-.1842655 1.3723821-.5478928.3629799-.3636274.5607466-.8607706.5469171-1.3748306.0121717-.5141056-.1872-1.0106093-.551355-1.3730606-.3641551-.3624511-.8610548-.5589611-1.3741555-.5434403-.5109746-.0120494-1.004596.1859953-1.3660099.5480539-.361414.3620587-.5591062.8565605-.5470779 1.368447 0 1.0951434.8198947 1.9227234 1.9192991 1.9227234zm-3.8385983 3.2854301c.5120386.0137814 1.0072973-.183498 1.3700808-.5457523.362783-.3622542.5613155-.8577544.5492184-1.3707486.0138295-.51406-.1839372-1.0112032-.5469171-1.3748305-.3629798-.3636274-.8592373-.5617472-1.3723821-.5478928-.5131448-.0138544-1.0094023.1842654-1.3723821.5478928-.3629799.3636273-.5607466.8607705-.5469171 1.3748305 0 1.0951434.8261061 1.9165009 1.9255105 1.9165009zm13.4288828-4.3867959c.5120389.0137813 1.0072969-.183498 1.3700809-.5457523.362783-.3622543.561315-.8577545.549218-1.3707486.013909-.5151717-.184697-1.0133212-.54905-1.3771466-.364352-.3638254-.862254-.5611746-1.3764602-.5455768-.5120808-.0121185-1.0066985.186768-1.3683075.5501984-.361609.3634305-.5585372.8595727-.5447804 1.372525 0 1.0951433 1.0994044 1.9165009 1.9192992 1.9165009zm4.9317909 1.3751516c.513145.0138544 1.009403-.1842654 1.372383-.5478927.362979-.3636274.560746-.8607706.546917-1.3748306.012171-.5141057-.1872-1.0106094-.551355-1.3730606s-.861055-.5589612-1.374156-.5434403c-.510974-.0120495-1.004596.1859953-1.36601.5480539-.361414.3620587-.559106.8565605-.547078 1.368447 0 1.0951434.819895 1.9227233 1.919299 1.9227233zm4.385195 2.1902868c.510975.0120494 1.004596-.1859953 1.36601-.5480539.361414-.3620587.559106-.8565605.547078-1.368447.013757-.5129522-.183171-1.0090944-.54478-1.3725249s-.856227-.562317-1.368308-.5501985c-.514206-.0155978-1.012108.1817514-1.37646.5455768-.364353.3638255-.562959.8619749-.54905 1.3771466 0 1.0951434.826106 1.9165009 1.92551 1.9165009zm34.249242 3.2916526c0 1.0951434.819894 1.9165009 1.919299 1.9165009.510974.0120494 1.004596-.1859953 1.36601-.5480539.361414-.3620587.559106-.8565605.547078-1.368447.013756-.5129522-.183172-1.0090945-.544781-1.3725249-.361609-.3634305-.856226-.562317-1.368307-.5501985-.514207-.0155978-1.012108.1817514-1.376461.5455768-.364353.3638255-.562958.8619749-.54905 1.3771466zm2.465895 2.7440808c-.5131-.0155208-1.01.1809892-1.374155.5434404s-.563527.8589549-.551355 1.3730606c0 1.0951434.826106 1.9227233 1.92551 1.9227233.513145.0138544 1.009403-.1842655 1.372382-.5478928.36298-.3636273.560747-.8607705.546917-1.3748305.012172-.5141057-.1872-1.0106094-.551355-1.3730606s-.861054-.5589612-1.374155-.5434404zm-.826106 4.6605818c-.510974-.0120494-1.004596.1859953-1.36601.548054s-.559106.8565605-.547078 1.368447c0 1.0951434.819895 1.9227233 1.913088 1.9227233.514207.0155978 1.012108-.1817514 1.376461-.5455768s.562958-.8619748.54905-1.3771465c.012171-.5141057-.1872-1.0106094-.551355-1.3730606s-.861055-.5589612-1.374156-.5434404zm-10.410179-14.5355395c.512039.0137814 1.007297-.183498 1.370081-.5457523.362783-.3622543.561315-.8577544.549218-1.3707486.01383-.51406-.183937-1.0112032-.546917-1.3748306-.36298-.3636273-.859237-.5617471-1.372382-.5478927-.513145-.0138544-1.009402.1842654-1.372382.5478927-.36298.3636274-.560747.8607706-.546917 1.3748306 0 .8213576.826106 1.9165009 1.92551 1.9165009zm4.938003 1.3751517c.51208.0121185 1.006698-.186768 1.368307-.5501984.361609-.3634305.558537-.8595727.54478-1.372525.012098-.5129941-.186435-1.0084943-.549218-1.3707486s-.858042-.5595336-1.370081-.5457523c-.512038-.0137813-1.007297.183498-1.370081.5457523-.362782.3622543-.561315.8577545-.549218 1.3707486 0 1.0951434.826106 1.9227234 1.925511 1.9227234zm3.559088 3.2854301c.510975.0120495 1.004596-.1859953 1.36601-.5480539.361414-.3620587.559106-.8565605.547078-1.368447.013757-.5129522-.183171-1.0090944-.54478-1.3725249-.361609-.3634304-.856227-.5623169-1.368308-.5501984-.514206-.0155978-1.012108.1817513-1.37646.5455768-.364353.3638254-.562959.8619748-.54905 1.3771465 0 1.0951434 1.099404 1.9165009 1.92551 1.9165009zm-13.428882-4.3867959c.512038.0137813 1.007297-.183498 1.37008-.5457523s.561316-.8577545.549219-1.3707486c.013829-.51406-.183937-1.0112032-.546917-1.3748306-.36298-.3636273-.859238-.5617471-1.372382-.5478928-.513145-.0138543-1.009403.1842655-1.372383.5478928-.362979.3636274-.560746.8607706-.546917 1.3748306 0 1.0951433.826107 1.9165009 1.925511 1.9165009zm-4.658494 1.3751516c.513145.0138544 1.009403-.1842654 1.372383-.5478927.362979-.3636274.560746-.8607706.546917-1.3748306.012097-.5129942-.186436-1.0084943-.549219-1.3707486s-.858042-.5595337-1.370081-.5457523c-.512038-.0137814-1.007297.183498-1.37008.5457523s-.561316.8577544-.549219 1.3707486c0 1.0951434.826106 1.9227233 1.925511 1.9227233zm-6.577792.2737859c0 1.0951434.826106 1.9165009 1.925511 1.9165009.510974.0120494 1.004596-.1859953 1.36601-.5480539.361414-.3620587.559106-.8565605.547078-1.368447.013829-.51406-.183938-1.0112032-.546918-1.3748306-.362979-.3636273-.859237-.5617471-1.372382-.5478928-.513144-.0138543-1.009402.1842655-1.372382.5478928-.36298.3636274-.560746.8607706-.546917 1.3748306zm-6.844879 10.416307h2.186386v-8.2260202c-.819895 0-1.366491-.2737859-2.186386-.5475717zm6.571581-9.0473778c-.681523.342519-1.430331.5295237-2.192597.5475717v8.2260202h2.192597zm-4.658493-9.0473777v-4.6668043c-2.465896.5537941-4.378984 2.4702951-4.658493 4.9405901h4.658493zm2.465896 0h4.658493c-.546597-2.4702951-2.192598-4.386796-4.658493-4.9343677z"/><path d="m109.128695 18.3531994c.552681 2.7468779 3.018011 4.671561 6.023601 4.671561 2.81039.0963385 5.263793-1.8946407 5.756576-4.671561zm9.314847-7.96034c-1.366177-1.09625971-2.465329-2.7406492-2.732355-4.39126744 1.639413.27406492 3.285036 1.37032458 4.377978 2.7468779v-6.59001546c-1.092942 1.37032458-2.738565 2.47281299-4.384188 2.7468779.273236-1.64438949 1.099152-3.02094281 2.46533-4.6653323h-6.296837c1.366178 1.64438949 2.46533 3.02094281 2.46533 4.67156105-1.645623-.28029366-3.291246-1.37655332-4.384188-2.75310665v6.59001546c1.092942-1.37032457 2.732355-2.47281298 4.384188-2.74064915-.273236 1.64438949-1.372388 3.28877898-2.744775 4.38503869zm0 138.0664296c-.653779.003322-1.281828-.255281-1.744708-.718398-.46288-.463115-.722285-1.092416-.720621-1.748186 0-1.370325 1.099152-2.472813 2.465329-2.472813 1.366178 0 2.46533 1.096259 2.46533 2.472813 0 1.370324-1.092942 2.466584-2.46533 2.466584zm-11.227495-3.569073c-.653779.003323-1.281828-.255281-1.744708-.718397s-.722285-1.092417-.720621-1.748187c0-1.370324 1.092942-2.472813 2.465329-2.472813 1.366177 0 2.465329 1.09626 2.465329 2.472813 0 1.370325-1.099152 2.466584-2.465329 2.466584zm-3.837717-11.523184-.546471-.554358c-1.099152-.822195-2.192094-.822195-3.2912457 0-.546471.54813-1.092942.828423-1.3661775 1.370324l-.546471.828424.546471.274065c1.3661775 1.09626 1.3661775 2.192519 1.092942 2.740649l-.546471.554359c-.546471.274065-1.3661775 0-2.4653294-.54813l-.8197065-.274065-.2732355.54813-.2732355.274065c0 .274065-.2732355.274065-.2732355.548129-.4698689.643759-.7554565 1.404048-.8259164 2.198748v.54813c.297043.508619.6674323.970388 1.0991519 1.370325l.2732355.274065c.546471.274065 1.3661775.822195 1.9188584 1.096259-1.0284796.550345-2.2627663.550345-3.2912458 0-1.6394131-.822194-2.7323551-2.740649-2.7323551-3.569072 0-1.370325.5402611-3.288779 1.9126485-5.213462l.2732355-.274065-.2732355-.274065-.8259164-1.64439c.5526809 0 1.3723874.274065 1.9250684.274065h.2670256l.2732355-.274065c.8259164-.828423 3.2912458-3.301236 5.7565755-3.301236 1.092942 0 2.192094.554358 3.0118 1.376553.546471.822195 1.099152 1.64439 1.099152 2.198748-.413009-.067661-.796072-.258689-1.099152-.54813zm22.187965 9.0566c-6.826938-1.896563-13.50939-4.282071-19.995871-7.138145.228091-1.512645-.279836-3.043367-1.366177-4.117203-1.099152-1.096259-2.47154-1.918454-3.837717-1.918454-.5464713 0-1.3661778 0-1.9188587.274065-1.092942-.828424-1.9188584-1.924683-2.7385649-2.746878-2.5817986-3.110907-4.6185774-6.638701-6.0236009-10.433153-.8359857-2.206789-1.3889566-4.511203-1.6456229-6.857852-.2732355 1.918455-2.4653294 4.665333-6.3030462 4.665333 0-.274065 0-1.370325-.2732355-1.370325-1.0929421 1.09626-2.4653295 2.192519-6.0236009 1.09626.546471 2.740649 1.3661775 5.213462 2.1920939 7.96034 1.8842619 5.404737 4.868109 10.35756 8.7621658 14.544127 1.0991519 1.370324 2.4653294 2.740649 3.8377168 3.843137v.822195c0 1.370324 1.3661775 3.569072 3.2912458 4.671561 1.6394131.822195 3.2788261.54813 4.924449-.554359 3.3852657 1.791735 6.9707227 3.173817 10.6810237 4.117203 4.657424 1.370324 8.768376 1.924683 12.326648 1.924683 3.01801 0 6.849517-1.370325 10.681024-3.843138 1.651833-1.096259 3.01801-1.924683 4.117162-3.020942.273235-.274065.273235-.274065.546471-.274065-3.291246.274065-7.669224-.822195-11.233705-1.64439zm-1.912649 24.703215c-.552681-.822195-1.099152-1.370325-1.645623-1.370325-2.465329 0-1.366177 6.583787-4.384187 6.583787-1.366178 0-1.918859-.822195-1.918859-1.644389 0-.828424.546471-1.102489.546471-1.924684 0-.822194-.546471-1.096259-1.092942-1.096259s-1.092942.274065-1.092942 1.096259c0 .822195.546471 1.09626.546471 1.924684 0 .822194-.825916 1.644389-1.918858 1.644389-3.011801 0-1.918859-6.590015-4.384188-6.590015-.546471 0-1.092942.554358-1.639413 1.370324-.478968-.738843-.763145-1.587533-.825916-2.466584 0-1.09626.825916-2.740649 2.738564-2.740649 3.291246 0 2.46533 4.391267 4.110953 4.391267.819706 0 1.099152-.554358 1.099152-1.102488 0-1.370325-2.192094-2.466584-2.192094-4.391268 0-1.918454 1.639413-3.295007 3.558271-4.939397 1.918859 1.370325 3.558272 3.020943 3.558272 4.939397 0 1.924684-2.185884 3.020943-2.185884 4.391268.038802.589652.505303 1.060229 1.092942 1.102488 1.645623 0 .819706-4.397496 4.110952-4.397496 1.918858 0 2.732355 1.650618 2.732355 2.746878 0 .54813-.267026 1.370325-.813497 2.472813zm-8.49514 9.0566c-.881783-.057224-1.585239-.760152-1.645623-1.64439 0-.828423.825917-1.650618 1.645623-1.650618.819707 0 1.645623.822195 1.645623 1.650618-.060384.884238-.76384 1.587166-1.645623 1.64439zm6.576282-15.92068c-.546471 0-.825916 0-1.099152.274065v-7.131917c-3.285036 0-6.843307-.54813-10.681024-1.644389v8.782534c-.273236 0-.819707-.274065-1.366178-.274065-2.471539 0-4.110952 2.198748-4.110952 4.117203 0 1.924683 1.092942 3.569072 1.918858 4.671561.546471-1.102489.819707-1.930912 1.639413-1.930912 1.366178 0 .546471 6.315951 4.384188 6.590015 0 .274065-.273235.54813-.273235 1.102489 0 1.644389 1.366177 2.740649 3.0118 2.740649s2.738565-1.370325 2.738565-2.740649c0-.274065 0-.828424-.273235-1.102489 3.558271-.274064 3.0118-6.583786 4.384187-6.583786.546471 0 1.092942.822194 1.645623 1.918454.819707-1.09626 1.912649-2.740649 1.912649-4.665332.273235-1.918455-1.366178-4.110974-3.831507-4.110974z"/><path d="m207 168.839758c-.274143-.274251-.548285-.548502-.822428-.548502-8.51711 2.474493-18.96568-4.668503-29.133877-11.262996-8.51711-5.765507-16.760079-10.982511-23.638565-10.982511-2.467283 0-4.940796.548502-6.866025 1.645507-2.473513 1.371255-4.124599 3.571497-5.501542 6.320242-1.09657 2.742511-2.467283 4.668502-3.295941 6.314009-1.096571 1.925991-1.925229 3.297246-1.925229 4.942753 0 1.371256.554516 2.474493 1.651086 3.845749 1.09657 1.103238 2.473514 1.925991 4.398742 3.022996.548285.274251.822428.548502 1.370713.548502 1.651086.822753 2.747656 1.371255 3.028029 2.200242-3.302172 1.371256-7.694683 2.742511-12.647941 3.571498-5.495312 1.097004-11.538909 1.371255-18.137022 1.371255s-12.647941-.548502-18.1370223-1.371255c-4.3363171-.713152-8.5788769-1.911157-12.6479406-3.571498.2803731-1.371256 1.1028007-1.925991 3.0280291-2.748744.5482852-.274252.8224277-.274252 1.3707128-.548503 1.6510859-.822753 3.3021717-1.65174 4.3987419-2.742511 1.1028008-1.103238 1.6510859-2.200242 1.6510859-3.577731 0-1.645507-.8286582-3.016762-1.9314589-4.942753-1.3207572-1.979956-2.4237324-4.096918-3.2897107-6.314009-1.0466595-2.680674-2.9912367-4.914629-5.5015427-6.320242-1.9189978-1.097005-4.1183688-1.645507-6.8660249-1.645507-6.8722554 0-15.1214541 5.491256-23.6385649 10.982511-10.1681966 6.868745-20.6167663 13.737489-29.133877 11.262996-.2741426 0-.8224277 0-.8224277.548502 0 .274251 0 .822753.5482851 1.103237 2.4735135 1.097005 4.947027 3.016763 7.146398 4.668503 3.0217986 2.46826 6.0435972 4.668502 9.0716264 4.668502 3.0217986 0 6.3177398-.822753 10.1681966-3.022995 3.2959412-1.919758 6.8722554-4.12 10.4423392-6.594494 6.5981128-4.668502 13.7445108-9.337004 20.3363932-9.885506-.5482851.822753-1.3707128 1.371255-1.9252284 1.92599-1.9189979 1.645507-3.5700838 3.291014-3.5700838 6.31401 0 2.474493.8224277 4.12 1.9252284 6.594493.2741426.548502.8224277 1.371255 1.0965703 2.46826.8286581 1.65174 1.1028007 3.022995 1.3707127 4.674735.2803731.822754.2803731 1.645507.5545157 2.742512.5482851 1.645506 1.0965702 4.394251 6.0435972 6.868744 5.5015427 2.742511 15.1214544 4.394251 28.5855924 4.394251 13.470368 0 23.090279-1.371256 28.585591-4.394251 4.947028-2.474493 5.495313-5.497489 6.043598-6.868744.274142-1.097005.554515-1.919758.554515-2.742512.548285-1.932224.822428-3.022995 1.370713-4.674735.548285-1.097005 1.09657-2.194009 1.370713-3.016763 1.102801-1.92599 1.931459-3.303479 1.931459-5.497488 0-3.022996-1.651086-4.668502-3.850457-6.58826-.548285-.554736-1.370713-1.103238-1.925228-1.925991 6.598113.548502 13.470368 5.217004 20.336393 9.891739 3.302172 2.19401 6.872255 4.668503 10.44857 6.588261 3.844226 1.925991 7.146398 3.022995 10.168196 3.022995 3.302172 0 6.043597-2.200242 9.071627-4.674735 2.19314-1.645507 4.392511-3.565265 7.140167-4.662269v-1.371256zm-90.697572-65.92v-31.8629955c3.302171.2742511 6.604343.8289864 9.619911 2.4744932 3.302172 1.6455068 6.32397 3.8457488 8.797484 6.8687443 2.473514 3.0167625 4.672884 6.5882602 6.043597 10.4340091 1.376944 3.8457488 2.199371 7.9657488 2.199371 12.0919819h-26.660363zm-1.096571-45.0457489c-9.071626 0-15.3893657 2.7425113-18.96568 4.9427534-2.199371-1.3712557-3.0217986-2.4682602-3.0217986-3.8457489 0-5.2170045 14.5669386-5.4912557 21.9874786-5.4912557 7.420541 0 21.98748.5485023 21.98748 5.4912557 0 1.3712557-.822428 2.7487443-3.021799 3.8457489-3.850457-2.4682602-9.894054-4.9427534-18.965681-4.9427534zm-.548285 45.0457489h-27.2086483c0-4.1137671.8224277-8.2400001 2.1993709-12.0857489 1.3707128-3.8457489 3.2959412-7.4172466 6.0435973-10.4340091 2.4097093-2.8905864 5.4092161-5.2324885 8.7974841-6.8687443 3.144282-1.6225252 6.630259-2.4708594 10.168196-2.4744932zm41.227302-1.919758c-.828658-.828986-2.473513-2.2002421-3.302171-3.8457489l-5.769455-11.5372466c-.516355-.7234738-.802942-1.5857481-.822428-2.4744932 0-.8227534.548285-1.6455068.822428-2.194009.274143-.5485023 1.370713-1.3712557 1.651086-1.925991.274142-.2742511.548285-.8227534.822428-1.0970045-1.651086-2.7425113-3.021799-4.6747352-5.22117-6.8687443-2.415876-2.739747-5.19071-5.1403832-8.249199-7.1367625 1.651086-1.1032375 3.302172-2.4744932 3.302172-5.2232375.038075-1.3832655-.572826-2.7047172-1.651086-3.5714977 1.651086-5.4850227 4.672885-12.0795159 7.420541-14.8344932l-5.495313-2.1940091c1.370713 2.200242 1.651086 4.6747352 1.096571 6.0459909-1.370713-1.0970045-2.741426-2.4744932-3.021799-4.12-.389428 2.0872025-1.036107 4.1180322-1.925228 6.0459909 1.651086-.8289864 2.747656-1.1032375 4.398742-.5547352-.822428 1.3712557-3.302172 3.0229954-6.872256 2.200242-1.918998-.5485022-3.844226-1.3712556-3.844226-3.0229954 0-.8227534.822428-1.9259909 1.918998-1.9259909 1.1028 0 1.376943 1.9259909.828658 2.7487443 1.644855-.8227534 3.302172-5.4912557.822428-6.0459909-1.925229-.5422693-3.570084 2.200242-4.398742 4.1262329-.274143-2.4744932-1.370713-4.6747352-3.295942-4.6747352-2.473513.2804841-1.651085 4.6747352-.822427 6.0459909.274142-1.6455068 1.09657-2.4744932 1.918998-2.4744932.554515 0 1.651086.5547353 1.376943 1.9259909-.274143 1.3712557-2.199371 2.4682603-4.672884 2.4682603-2.199371 0-6.31774-.8227535-6.872256-5.2170046 1.370713.2742511 3.850457 1.3712557 4.947027 3.0229955-.275457-2.4647372-.275457-4.9525095 0-7.4172466-1.370713 1.6455068-3.295941 2.7425113-4.672884 3.0229954.67096-2.1173869 2.025189-3.9522395 3.850456-5.2170045h-9.894054c1.925229 1.0970045 3.570084 3.2910136 3.844227 5.2170045-1.370713-.2742511-3.570084-1.0970045-4.672885-3.0229954.280373 2.7425113.280373 4.6747352 0 7.4172466 1.102801-1.3712557 3.302172-2.4744932 4.672885-2.7425114-.274143 4.3880182-4.392512 5.2170046-6.591883 5.2170046-2.473513 0-4.398742-.8289864-4.672884-2.4744932-.128091-.4424539-.047066-.9192085.219993-1.2944534s.690875-.6078437 1.15072-.6315375c.828658 0 1.651086.8289863 1.651086 2.4744931.828658-1.0970045 1.651085-5.7655068-.822428-6.0459909-1.925229 0-3.021799 2.2002421-3.302172 4.6747353-.548285-1.925991-2.4672829-4.6747353-4.3925113-4.12-2.4735135.5485022-.8286581 5.2170045.8224277 6.0459909-.2741426-.8289864-.2741426-2.7487443.8224277-2.7487443 1.1028009 0 1.9314589.8227534 1.9314589 1.9197579 0 1.3712557-1.9314589 2.4744932-3.8504568 3.0229955-2.523238.6547864-5.1978937-.2015395-6.8722554-2.2002421 1.6510858-.8227534 3.0217986-.2742511 4.3987419.2742511-.8915041-1.9275789-1.540288-3.9584483-1.9314589-6.0459909-.4353721 1.7131256-1.5158613 3.1915701-3.0155682 4.126233-.280373-1.3712557-.280373-4.12 1.0965703-6.3202421l-5.4953122 2.2002421c2.4735135 2.7425114 5.7694547 9.3370045 7.4143101 14.8344932-1.0741572.8667016-1.6824702 2.1852344-1.6448554 3.5652647 0 2.4744932 1.6510859 4.12 3.3021717 5.2232376-3.0586272 1.9961961-5.8334838 4.3968527-8.2491987 7.1367624-3.8442263 4.12-6.5981129 9.0627535-8.7974838 14.5602421.8286581.8227534 4.1245993 4.3942511 4.6728844 5.2170045 1.3769433 1.6455069 2.199371 3.2972466 2.199371 4.6747353 0 2.4682602.5545156 3.5652647 1.9314589 5.2107718.267912.554735 1.0903397 2.474493 1.0903397 3.571497h27.4890214v29.394736c-1.1028 0-2.199371.274251-3.028029 1.371255 3.028029 1.371256 6.049828 2.468261 9.071627 3.297247.274142-1.925991.548285-3.022995 1.651085-4.394251 0 0-3.850456-.274251-6.043597-.548502v-28.571982h26.379991c0 4.126233-.822428 7.965749-2.199371 11.537246-1.370713 3.845749-3.295941 7.417247-6.043598 10.440242-2.409843 2.890448-5.409318 5.232325-8.797483 6.868745-.548286.274251-.548286.548502-1.096571.822753-.548285.548502-.828658 1.371256-1.370712 2.46826-.280373.828987-.554516 1.371256-.554516 2.748745 1.370713.274251 1.925228.548502 3.021799.822753 9.345769 2.200242 11.54514 1.65174 12.093425 1.371256 2.199371-1.645507 4.124599-3.565265 5.775685-5.485023 3.844226-4.126233 6.591882-9.068986 8.791253-14.560242 2.199371-5.77174 3.302172-11.811498 3.302172-17.857489.274142-1.371255.274142-1.645506.274142-2.742511z"/><path d="m131.079112 84.0609523c-.280782.274743-.280782.5494861-.280782.8242292s.274542.5494862.829867.5494862c-.274542.274743-.549085.5494861-.549085 1.0989723.549085 0 .823628 0 1.372713-.2747431 0 .5494862 0 .8242293.274543.8242293h.823628c1.934277 3.3094053 3.30699 6.8810653 3.856076 10.7337127-.274543-.2747431-.549086-.2747431-1.098171-.2747431 0 .5494861.274543.8242292.549085 1.0989723h-6.607742c0-.5494862-.274542-.8242292-.549085-.8242292-.274542 0-.549085 0-.823628.274743-.069974-.4140353-.263575-.797167-.555325-1.0989723-.289152.3028343-.480485.6857812-.549085 1.0989723-.274543-.274743-.549085-.5494861-.823628-.274743-.274542 0-.549085.5494861-.549085.8242292h-5.784114c.274542-.2747431.274542-.5494862.274542-1.0989723-.549085 0-.823627.2747431-1.09817.5494861v-9.07901c.549085 0 .823628-.2747431.823628-.5494862s0-.5494861-.274543-.8304734c.414985-.067829.799881-.2593293 1.10441-.5494861-.304303-.290479-.689304-.4820318-1.10441-.5494862.274543-.2747431.274543-.5494862.274543-.8242293 0-.274743-.549085-.5494861-.823628-.5494861v-7.7052946c.274543.274743.549085.274743 1.09817.274743 0-.5494861 0-.8242292-.274542-1.0989723 1.653495.5494862 3.581533 1.3737154 5.228789 2.4726877 1.934278 1.3737155 3.581534 3.0284181 5.228789 4.9516197zm7.42513 13.7558866c.555325.274743.280783 1.0989723-.274542 1.0989723-.620242-4.854611-2.415108-9.4843716-5.22879-13.4873877.549086-.2684989 1.104411-.543242 1.104411-1.3737154-.829868 0-1.372714.2809872-1.653496.8304734-.274543-.2747431-.274543-.5494862-.549085-.8304734-1.653496-2.1979447-3.581534-3.8464032-5.784114-5.4948617-1.921799-1.3799595-4.124379-2.2041888-6.32696-3.0346622 0-.5494861.823628-.5494861 1.09817-.2747431 0-.8242292-.549085-1.3737154-1.09817-1.0989723-.274543 0-.549085.2747431-.549085.5494862-.274543-.2747431-.555325-.5494862-1.10441-.5494862 0 .5494862 0 .8242293.274542 1.3737154-.274542 0-.549085.2747431-.823628.2747431-.274542.2809872 0 1.1052165.823628 1.3737154-.274542-.2684989-.274542-1.0927282.274543-.8179851v10.4527255c-.549085-.2747431-1.098171 0-1.647256.5494861.549085.5494862 1.098171.5494862 1.647256.5494862v11.0084558c-.549085 0-.823628-.5494862-.274543-.8242293-.823628 0-1.09817.8242293-1.09817 1.0989724 0 .274743.274542.5494861.823628.274743-.274543.2747431-.549086.5494867-.549086 1.1052167.549086 0 .823628-.280987 1.098171-.55573 0 .55573.274542.830473.555325.830473.274542.274743 1.09817-.274743 1.09817-1.1052166-.274542.5494866-1.09817.2747436-1.09817-.2747431h7.705912c-.274542.5494867 0 1.1052167.549085 1.6547027.549086-.549486.549086-1.105216.549086-1.6547027h8.810322c0 .5494867-.549085.8242297-.829867.2747431 0 .8304736.829867 1.1052166 1.10441 1.1052166s.549085-.274743.274543-.830473c.274542.274743.549085.55573 1.09817.55573 0-.55573-.274542-.8304736-.549085-1.1052167.549085 0 .829868-.274743.829868-.5494861 1.09817-.2747431.549085-1.0989723-.274543-1.0989723z"/><path d="m133.469795 95.1509991c.280355-.2736955.554479-.2736955.828604-.5473909h-.828604c.280355-.2736955.554479 0 .280355-.5473909-.274125-.5473909-.55448-.5473909-.828604-.2736955-.274125.2736955-2.473352 0-2.473352-1.648393.274125.2736954.548249.5536112.828604.5536112h1.096499c.548249 0 .822373-.2799158.822373-.8273067 0-.8210863-.822373-1.3684772-1.644747-1.9158681l-.828604-.8210864c-.274125-.5473909 0-1.1010022-.822374-2.195784 0-.2736954 0-.5473909-.274125-1.0947818-.548249.8210864-.548249 2.1895636.548249 3.2905658.828604 1.0947818 2.747477 1.9158682 2.747477 2.7369545 0 .2736955-.274125.2736955-.548249.5473909h-.274125-.274125s-.274124 0-.274124-.2736954c-.293676-.0209153-.527301-.2541748-.54825-.5473909-.828604-.8210864-1.376853-1.9158682-1.931332-2.4632591-.822374-1.1010022-.548249-2.195784-.267895-3.0168703.54825-.8210864-.280354-2.4694794-.828604-3.0168703v-.8210864h-.548249l-.548249-.5473909c-.274125 0-.274125-.2736954-.274125-.5473909-.274124.2736955-.274124.2736955-.548249.2736955h-.554479c-.274125.2736954-.274125.2736954-.54825.2736954-.274124 0-.274124.2736955-.274124.5473909 0 .2736955 0 .5473909.274124.5473909l.274125.2736955.274125-.2736955c.274124-.2736954.548249-.2736954.828604.2736955 0 .2736954 0 .2736954-.274125.2736954h-.828604c-.274125 0-.274125.2736955-.274125.5473909 0 .2799158.274125.2799158.54825.2799158.548249 0 1.102728-.2799158 1.102728.2736955 0 .8210863-1.102728.8210863-1.370623 1.9158681-.280355-.2736954-.560709-.2736954-.560709-.5473909-.267895-.2736954-.54202-.5473909-.816144-1.0947818-.274125-.2736954-.55448-.5473909-.828604-.5473909-.548249-.2799158-.548249-.2799158-.548249-.8273067 0-.2736954.274124-.5473909 0-.8210863v-.2736955c0-.2736954-.274125-.2736954-.54825-.2736954l.274125.2736954-.274125.2736955v.5473909c0-.2736955-.274124-.5473909-.274124-.5473909h-.274125c0-.2736955-.274125-.5473909-.554479-.2736955h.274124v.2736955c0 .2736954.280355.2736954.55448.2736954-.54825-.2736954-.54825 0-.54825.2736955v.2736954c-.280354 0-.280354.2736955 0 .5473909v-.2736954h.274125c-.274125.2736954-.274125.5473909 0 .5473909-.274125.2799158-.554479.2799158-.554479-.2736955-.141796.2372865-.104037.5404179.09165.7357998.195688.1953812.499295.2330803.736954.0915069v.5473909s0 .2736955.274124.2736955v-.2736955l.274125.2736955c.274125.5473909.822374 1.6421727 1.925102 1.9158681-.548249.2736955-.828604.8273067-1.370623 1.3684773-.303039.2916405-.687534.4846717-1.102728.5536112l-.274125-.2736954h-.274125-.280354c-.274125 0-.54825 0-.54825.2736954h.274125v.2736955s0 .2736955.548249.2736955h-.274124c-.274125 0-.274125-.2736955-.54825 0v.2736954c-.274124 0-.548249.5473909-.274124.8210864 0 0 0-.2736955.274124-.2736955.274125.2736955.274125.2736955.828604-.2736954 0 .2736954-.280354.5473909 0 .8210863h.274125c0 .2736955.548249.2736955.548249.2736955l-.274124-.2736955h.274124c.274125-.2736954 0-.5473909 0-.5473909s.274125.2736955.54825.2736955c.274124 0 .274124-.2736955.274124-.2736955.274125-.2736954.828604-.2736954 1.102729-.2736954 0-.2736955.274124-.5473909.548249-.5473909h.822374c0-.2736955.274125-.547391.548249-.8210864 0 1.6421727 2.199227 1.6421727 2.747477 2.4632591-.54825-.2736955-1.370624-.5473909-1.918873-.2736955-.548249 0-1.370623.5473909-1.650978 1.0947818 0 .5536113.54825 1.3684773 1.102729 1.6483931h-1.376853c-.54825 0-.54825-.8210864-1.096499-.5473909h-.280355c-.274124 0-.548249.2736954-.548249.5473909l.274125-.2736955s0 .2736955.274124.2736955h.280355c0 .2736954-.828604 0-.554479.5473909v.2736954c0 .2736955 0 .2736955.548249.2736955 0 0-.274125 0-.274125-.2736955h.280355v.5473909c0 .2736955.274125.5473909.548249.2736955 0 0-.274124 0-.274124-.2736955h.274124v-.2736954h.274125s.274125.2736954.548249.2736954c0 0 .274125 0 .274125-.2736954 0 0 .274125 0 .274125.2736954 0-.2736954 0-.5473909.548249 0l.280355-.2736954s.548249.2736954.548249 0c.274124-.2736955.274124-.2736955.274124-.5473909-.274124-.5473909-.274124-.5473909-.548249-.8210864-.274124-.8210863 1.096499-1.3684772 1.644748-1.0947818 0 .5473909.828604 1.9158682 2.199227 2.1895636.828604.2736955 1.102729-.5473909 1.370623-.5473909v1.0947818c0 .2736955-.542019 0-.816144 0h-.280354c-.293676.0209153-.527301.2541748-.54825.5473909 0 0 .274125-.2736954.54825-.2736954 0 .2736954.274124.5473909.554479.2736954-.274125 0-.554479.5473909-.274125.5473909h.274125c0 .2799158 0 .2799158.274125.5536113v-.2736955h.274124c.274125 0 0-.2799158.274125-.5536112v.5536112h.274125c0 .2736955.274124.2736955.548249.2736955 0 0-.274125 0-.274125-.2736955l.274125-.2799158c.274124-.5473909-.274125-.5473909-.274125-.8210863 0-.2736955.548249 0 .548249-.5473909.296104-.0179408.533166-.2519721.55448-.5473909 0 .5473909-.274125.5473909-.274125.5473909zm-24.727287 14.5307399h-.280355c-.548249 0-1.096498.273696-1.096498.821087s.274124.821086.822373.821086h.274125v.273696c0 .821086-.274125 2.195784-.548249 3.564261l-4.12433-5.753825c1.931333-.827307 3.301956-1.648393 4.12433-1.648393.828604.273695 1.102728.827307.828604 1.922088zm-1.376853 10.139173-6.323557-9.044391c.828604-.273695 1.376853-.273695 1.931332-.547391l4.672579 6.854827c0 .821087-.280354 1.915868-.280354 2.736955zm-.822374 4.111652-8.7969088-12.876127h2.1992271l7.1459307 10.412868c-.274125.821086-.274125 1.642173-.548249 2.463259zm-10.173762-12.876127 9.899637 14.244604c-5.227058-2.189563-10.4478863-6.848606-9.8934069-14.244604zm14.846341-1.101002h-.55448v-.547391c0-1.648393-.822374-2.743175-2.473352-2.743175-1.644747 0-4.398454 1.922089-8.5165533 1.922089-1.6509778 0-3.850205-.827307-5.2208281-1.648393l-.5482492 1.094781c-.0422688-.588627-.5129476-1.055914-1.1027286-1.094781-.5873513.04183-1.0546023.50835-1.0964985 1.094781.0389281.588858.506948 1.0588 1.0964985 1.101002.2741246 0 .5482492-.273695.8223738-.273695l-.5482492 1.094782c.2741246 0 .2741246.273695.5482492.273695-.5482492 6.301216 4.1243296 14.250825 12.0926344 16.446609 1.102728-.273696 2.473351-.273696 2.473351 1.094782 0 .821086-.548249 1.101002-1.096498 1.101002s-.822374-.279916-.822374-.553612c0-.54739.822374-.273695 1.096499-.54739 0-.547391-.274125-.821087-.822374-.821087-.55448 0-1.370623.273696-1.370623 1.368477 0 1.101003.816143 1.922089 1.918872 1.922089.822374 0 2.747476-.547391 2.473352-2.736955.548249 0 .822374 0 1.096498-.553611v-1.368477h-.548249l.274125-14.257045h.274124c.55448 0 1.102729-.273695 1.102729-.821086.274124-.273696 0-.547391-.548249-.547391zm-7.145931-30.1500422.274125-.2799159s0-.2736954-.274125-.2736954c0 0 .274125 0 0 0h-.274125.274125l.548249.2736954v.2736955s0-.2736955-.274124-.2736955v.2736955h-.274125v.5473909l-.274125.2799158c0-.5536112 0-.5536112.274125-.8273067zm.548249-1.3684773c0 .2674751-.274124.2674751-.274124 0-.274125-.2799158 0-.2799158-.274125-.5598316 0 .5598316.548249.5598316.548249.5598316zm4.946704 2.7369545c1.925102 0 3.021601-.5473909 3.021601-1.1010021 0-2.1895637-5.220828-.8210864-5.220828-2.1895637 0-.2736954.274124-.2736954.274124-.5473909 2.747477-.2736954 2.747477-2.1957839 4.672579-2.4694794-2.199227-.2736954-2.747476 1.3684773-3.56985 1.6483931.548249-.2736955.822374-.8273067.548249-1.1010022-.548249.5473909-1.370623.5473909-2.199227 1.3684773v.2799158c-.274125.2736954-.548249.5473909-.548249.8210863 0 1.9158682 5.494952.5473909 5.494952 2.1895637 0 .5536112-.822373.8273067-2.473351.8273067-1.102729 0-1.925103-.8273067-3.850205-.2736955 0-.2799158.828604-1.1010022.554479-1.3684773.274125 0 .274125-.2799158.274125-.2799158l-.274125-.2736954v-.5473909s-.274125-.2736955-.554479-.2736955h-1.096499l-.274124-.2736954v.5473909c-.274125 0-.274125.5473909-.54825.5473909 0 0 0 .2736954.274125.2736954-.274125.2736955-.274125.5473909-.274125.5473909l.274125.2736955c-.274125.5473909-.274125 1.1010022-.274125 1.1010022s-.274124-.2736955-.554479-.2736955c-.274125-.2799158-.274125-.2799158-.274125-.5536112 0-.2736955.274125-.547391.274125-.8210864v-.2736955c0-.2736954-.274125-.2736954-.548249-.2736954 0 0 .274124 0 0 .2736954h-.274125v.2736955c0-.2736955 0-.5473909-.274125-.5473909h-.274124c0-.2736955-.274125-.2736955-.548249 0h.274124v.2736954c0 .2736955 0 .2736955.274125.2736955-.274125-.2736955-.548249 0-.548249.2736954v.2736955c-.280355 0-.280355.2736955 0 .5473909v-.2736954h.274124c-.274124.2736954-.274124.5536112 0 .5536112 0 .5473909-.828604.2736955-.554479 0-.548249.5473909 0 .8210864.554479.5473909v.2736955s0 .2736954.274125.2736954v-.2736954l.548249.5473909c-.274125.5473909-.822374.5473909-1.096498.5473909h-.828604c-.274125.2736954-1.0964989.5473909-1.3706235 0 0 0 0-.2736955-.2741247-.2736955l-.2803547-.2736954h-.2741246s-.2741246-.2736955-.5482493 0c0 0 .2741247 0 .2741247.2736954v.2736955s0 .2736954.5482492.5473909h-.2741246c-.2741246-.2736955-.2741246-.2736955-.5482493-.2736955h-.2741246c-.2741246 0-.5482492.2736955-.2741246.5473909 0 0 0-.2736954.2741246-.2736954v.2736954c0 .2736955.2741246.5473909.5482493 0 0 .2736955-.5482493.5473909-.2741247.5473909 0 .2799158.2741247.5473909.5482493.5473909 0 0-.2741246-.2674751-.2741246-.5473909h.2741246c.2741246 0 0-.2736954.2741246-.5473909 0 0 0 .2736955.2741246.2736955.2803548 0 .2803548-.2736955.2803548-.2736955l.2741246.2736955s.2741246 0 .2741246-.2736955v.5473909l.5482493-.5473909v.2736955h.548249v.2736954-.2736954s0 .2736954.274125.5473909c0-.8210864.554479-.5473909.828604-.8210864 0 0 0 .2736955-.274125.2736955.293676-.0209153.527301-.2541748.548249-.5473909l.274125-.2736955c.274125 0 .548249 0 .548249-.2736954v.2736954c.54825 0 1.102729-.5473909 1.102729-.5473909 1.096498-.2736954-.548249-.8210863 1.370623-.8210863.274125 0 .548249 0 .548249-.2736955-.274124.2736955-.274124.8210864.280355 1.0947818 0 0 .548249 0 .548249.2736955h-.548249c-.554479.2736954-.554479-.8210864-1.102729-.5473909-.293676.0209153-.527301.2541747-.548249.5473909l.274125-.2736955s0 .2736955.274124.2736955h.274125c0 .2736954-.548249 0-.548249.5473909v.2736954c0 .2736955 0 .2736955.274124.2736955 0 0-.274124 0 0-.2736955v.2736955c0 .2736954.274125.2736954.54825.2736954h-.274125v-.2736954l.274125.2736954c.280354 0 0-.2736954.280354-.5473909h1.096499s0-.5473909-.274125-.8210863c-.274124 0 0-.2736955-.274124-.5473909.274124 0 .548249.2736954 1.096498.2736954.828604 0 0 0 .274125-.2736954.274124-.2736955.828604 0 .828604 0s.274124 0 .274124.2736954v.5473909c0 .2736955-.274124 0-.548249 0h-.280355c-.274124 0-.274124.2736955-.274124.5473909l.274124-.2736954c0 .2736954.274125.2736954.55448.2736954-.274125 0-.55448.2736955-.274125.5473909 0 .2799158 0 .2799158.274125.2799158v-.2799158c.274124 0 0-.2736954.274124-.5473909v.5473909c0 .2799158.274125.2799158.54825 0 0 0-.274125 0-.274125-.2736954v-.2736955c0-.2736954-.274125-.2736954-.274125-.5473909 0-.2736954.274125 0 .274125-.5473909 0 0 0-.2736954-.274125-.2736954h.274125c-.274125 0-.274125-.2736955-.274125-.2736955s.274125-.2736954 0-.5473909c0 0-.548249.2736955-.548249 0 0 0 0-.2736954-.280355-.2736954 2.473352.8210863 2.199228.5473909 1.370624.2736954-.267895 0 0 0 0 0zm-10.4416565 6.8486066c.2741246 0 .2741246 0 0 0 .2741246-.2736954.2741246-.2736954.5482492-.2736954 0-.2736955 0-.2736955-.2741246-.2736955.2741246 0 .2741246 0 .2741246-.2736954h-.2741246v-.2736955h.2741246l.5482493.2736955v.5473909s0-.2736955-.2741247-.2736955v.2736955h-.2741246v.5473909s-.2741246.2799158-.5482492.2799158v-.5598316zm.8223738-1.3684772c0 .2736954-.2741246.2736954-.5482492.2736954-.2741246-.2736954 0-.2736954-.2741246-.5473909.2741246 0 .5482492.2736955.8223738.2736955zm.2741247.2736954s.548249.2736955.828604.2736955c-.280355 0-.280355.2736954-.554479.2736954 0-.2736954-.274125-.5473909-.274125-.5473909zm11.818509 1.6483931c0-.5536113-.548249-.8273067-2.473351-.8273067-1.925103 0-6.043202.8273067-6.043202-.2736955 0-.5473909.822374-.5473909 1.918872-.5473909l.274125.2736955c2.473351.8210863 5.227058-.5473909 6.871806-.2736955-1.644748-1.3684772-3.301956 0-4.946704-.2736954 1.102729 0 1.370623-.2736955 1.370623-.5473909-.822374.5473909-2.467121-.2736955-3.56985.2736954h-.274125c-1.370623 0-2.473351 0-2.473351.8210864 0 1.9220885 4.946703.8210863 6.597681.8210863s1.925103.2736955 1.925103.5536113c0 .5473909-1.650978.5473909-2.473352.5473909-1.376853 0-5.501183-.8273067-7.974535-.2736955.345393-.3736334.542525-.8601638.55448-1.3684772.274124 0 .274124-.2799158.274124-.5536113 0 0-.274124-.2736954-.548249-.2736954v-.5473909s-.280355-.2736955-.554479-.2736955c-.274125 0-.5482497 0-.5482497-.2736954h-.5482492s-.2741246-.2736955-.5482493-.2736955v.5473909c-.2803547 0-.5544793.5473909-.5544793.5473909 0 .2736955.2741246.2736955.2741246.2736955-.2741246.2736954-.2741246.8210863-.5482492.8210863l.2741246.2736955v.8273067h-.5482493-.2741246.2741246-.2741246l-.8223739-.8273067c-.2741246-.2736955-.2741246-.2736955-.2741246-.8210864 0-.2736954.2741246-.5473909.2741246-.8210863v-.2736955c0-.2736954-.2741246-.2736954-.5544793-.2736954l.2803547.2736954-.2803547.2736955v.5473909c0-.2736955-.2741247-.5473909-.2741247-.5473909h-.2741246c0-.2736955-.2741246-.5473909-.5482492-.2736955h.2741246v.2736955c0 .2736954.2741246.2736954.2741246.2736954-.5482492-.2736954-.5482492 0-.5482492.2736955v.2736954c-.2741247 0-.2741247.2736955 0 .5473909v-.2736954h.2741246c-.2741246.2736954-.2741246.5473909 0 .5473909 0 .5473909-.8223739.5473909-.8223739 0-.5482492.5473909.2741246 1.1010021.8223739.8273067 0 0 0 .2736954.2741246.2736954 0 .2736955 0 .2736955.2741246.2736955v-.2736955s.2741247.5473909.828604.5473909c.2741247.2736955.5482493.547391.8223739.2736955 0 .2736955.2741246.8210864.2741246.8210864h-1.3706231c-.2803547.2736954-1.3768532.5473909-1.3768532.2736954 0 0 0-.2736954-.2741247-.5473909l-.2741246-.2736954h-.2741246c-.2803547-.2736955-.5544794-.2736955-.5544794 0 0 0 .2741247 0 .2741247.2736954v.2736955s0 .2736954.5544793.5473909h-.2741246c-.2803547-.2736955-.2803547-.5473909-.5544794-.2736955h-.2741246c-.2936759.0209153-.5273011.2541747-.5482492.5473909 0 0 0-.2736954.2741246-.2736954v.2736954c0 .2736955.2741246.5473909.828604 0-.2803548.2736955-.5544794.5473909-.2803548.5473909 0 .2736955.2741247.5473909.5544794.5473909 0 0-.2803547-.2736954-.2803547-.5473909h.2803547c.2741246 0 .2741246-.5473909.2741246-.5473909 0 .2736955 0 .5473909.5482493.5473909.2936759-.0209153.5273011-.2541747.5482492-.5473909l.2741246.2736955s.2741247 0 .2741247-.2736955v.5473909s.5544793-.2736954.5544793-.5473909v.2736955h.5482493v.2736954-.2736954s0 .2736954.2741246.5473909c0-.8210864.5482493-.5473909 1.0964985-.8210864 0 0 0 .2736955-.2741246.2736955.5544793 0 1.3706231-.8210864 1.6509778-1.0947818h.5482497c1.650977.2736954.548249-1.3684773 3.301955-1.0947819.274125 0 .54825-.2736954.54825-.2736954-.274125.2736954-.274125 1.0947818.274124 1.0947818.274125 0 .548249 0 .548249.2736955h-.548249c-.548249.2736954-.548249-.8210864-1.102728-.5473909h-.274125c-.274125 0-.548249.2736954-.548249.5473909l.274124-.2736955s0 .2736955.274125.2736955h.274125c0 .2736954-.822374 0-.54825.5473909v.2736954c0 .2736955 0 .2736955.54825.2736955 0 0-.274125 0-.274125-.2736955h.274125v.2736955c0 .2736954.280354.5473909.554479.2736954 0 0-.274125 0-.274125-.2736954h.274125v-.2736955h.274125c0 .2736955.274124.2736955.548249.2736955.274124 0 0-.5473909.274124-.5473909h1.102729c0-.2736955 0-.8210864-.274125-.8210864-.280354 0 0-.2736954-.280354-.5473909.280354.2736955.828604.2736955 1.102728.2736955.822374 0 1.096499 0 1.370623-.2736955.55448-.2736955.828604 0 1.102729 0 0 0 .274125 0 .274125.2736955v.8210863c0 .2736955-.54825 0-.822374 0h-.274125c-.296104.0179407-.533165.2519721-.554479.5473909l.274124-.2736954c0 .2736954.274125.5473909.55448.2736954-.274125 0-.55448.5473909-.274125.5473909h.274125c0 .2736955 0 .2736955.274124.2736955v-.2736955h.274125c.274125 0 0-.2736954.274125-.5473909v.5473909h.274124c0 .2736955.274125.2736955.54825.2736955 0 0-.274125 0-.274125-.2736955v-.2736954c0-.5473909-.274125-.5473909-.274125-.5473909 0-.2736955.54825 0 .54825-.5473909 0 0 0-.2736955-.274125-.2736955 0 0 .274125 0 .274125-.2736954-.274125 0-.274125-.2736955-.274125-.547391 0 0 .274125-.2736954.274125-.5473909 0 .2736955-.54825.2736955-.54825 0 0 0 0-.2736954-.274124-.2736954-.54825 0-1.102729 0-2.199227-.2736955 3.021601 1.0947818 4.672578.8210864 4.672578.2736955zm-15.1142346 7.9433884c.2741246-.2674751.2741246-.2674751 0 0l.2741246-.2674751c0-.2799158 0-.2799158-.2741246-.2799158 0 0 .2741246 0 0-.2736954h-.2741247v-.2736955h.2741247l.5482492.2736955v.5536112s0-.2799158-.2741246-.2799158v.2799158h-.2741246v.5473909l-.2741247.2736955c.2741247-.2736955.2741247-.5473909.2741247-.5473909zm.8223738-1.3684772c0 .2736954-.2741246.2736954-.5482492 0-.2741246-.2736955 0-.2736955-.2741246-.5473909.2741246.2736954.5482492.5473909.8223738.5473909zm.2741247 0s.5482492.2736954.8286039.2736954c-.2803547 0-.2803547.2736955-.5544793.2736955 0 0-.2741246-.2736955-.2741246-.5473909zm13.1953631 1.648393c0-.5473909-.55448-.8273067-2.473352-.8273067-1.931333 0-7.420055.5473909-7.420055-.2736954 0-.5473909 1.918872-.2736955 3.295725-.2736955l.274125.2736955c2.199227.5473909 4.672579-.8210864 6.323557-.2736955-1.370624-1.0947818-3.027832 0-4.672579-.2736954 1.096498 0 2.199227-.2736955 2.199227-.5473909-.828604.5473909-3.027831-.2736955-4.12433.2736954h-.274124c-1.650978 0-3.850205-.2736954-3.850205.8210864 0 1.9220885 6.323556.8210863 7.974534.8210863 1.644748 0 1.918873.2799158 1.918873.5536113 0 .5473909-1.370624.5473909-2.473352.5473909-1.370623 0-7.413825-.8210864-9.6192825 0 0-.2736955.828604-1.1010022.5544793-1.3684773.2741247 0 .2741247-.2799158.2741247-.5536112 0 0-.2741247-.2736955-.5482493-.2736955v-.5473909s-.2803547-.2736954-.5544793-.2736954c-.2741247 0-.5482493 0-.5482493-.2736955h-.5482492l-.2741247-.2736954v.5473909c-.2741246 0-.5482492.5473909-.5482492.5473909 0 .2736954 0 .2736954.2741246.2736954-.2741246.2736955-.2741246.8273067-.5544794.8273067l.2741247.2674751v.5536113h-.8223739c-.2741246 0-.5482493-.5473909-1.0964985-.8210864-.2741246-.2799158-.2741246-.2799158-.2741246-.8273067 0-.2736954.2741246-.5473909 0-.8210863v-.2736955c0-.2736954-.2741247-.2736954-.5544794-.2736954 0 0 .2803547 0 .2803547.2736954v.8210864c0-.2736955-.2803547-.5473909-.2803547-.5473909h-.2741246c0-.2736955-.2741246-.2736955-.5482493 0h.2741247v.2736954c0 .2736955.2741246.2736955.5482492.2736955-.2741246-.2736955-.5482492 0-.5482492.2736954v.2736955c-.2741247 0-.2741247.2736954 0 .5473909v-.2736955h.2741246c-.2741246.2799158-.2741246.5473909 0 .5473909 0 .5536113-.8223739.2799158-.5482493 0-.1376174.2359809-.0993458.5348264.0933146.728642.1926597.1938156.4916767.2342821.7290593.0986647 0 0 0 .2736955.2803547.2736955 0 .2736954 0 .2736954.2741247.2736954v-.2736954s.5482492.8210863 1.0964985 1.0947818c.2741246 0 .2741246 0 .5482492-.2736955l.2741246.2736955c0 .2736954.2741247.8210863.2741247.8210863h-1.3706232c-.2741246.2736955-1.0964985.5473914-1.3706231 0 0 0 0-.2736954-.2803547-.2736954l-.2741246-.2736955h-.2741247c0-.2736954-.5482492-.2736954-.5482492 0 0 0 .2741246 0 .2741246.2736955v.2736954s0 .2736955.5482493.5473914h-.2741247c-.2741246-.8210868-.2741246-1.0947823-.5482492-1.0947823h-.2741246c-.2741247 0-.5544794.2736955-.5544794.5473909 0 0 0-.2736954.2803547-.2736954v.2736954c0 .2736955.2741247.5473914.8223739 0-.2741246.2736955-.5482492.5473914-.2741246.5473914 0 .273695.2741246.54739.5482492.54739 0 0-.2741246-.273695-.2741246-.54739h.2741246c.2741247 0 .2741247-.5473914.2741247-.5473914s0 .5473914.2741246.2736955c.2741246 0 .5544793-.2736955.5544793-.5473909l.2741247.2736954s.2741246 0 .2741246-.2736954v.5473909s.5482492-.2736955.5482492-.5473909v.2736954h.5482493v.2736955-.2736955s0 .2736955.2741246.5473914c0-.8210868 1.1027286-.2736959 1.6509779-.8210868 0 0 0 .2736954-.2741246.2736954.2741246 0 .5482492 0 .5482492-.2736954l.8223739-.2736955v-.2736954h.2741246c.5544794 0 .5544794-.2736955.5544794-.2736955 3.0216005.2736955 1.3706235-1.3684772 4.6725785-.8210863.274125 0 .274125 0 .274125-.2736955-.274125.2736955-.274125.8210864.274125.8210864.274124 0 .548249 0 .548249.2736954h-.548249c-.54825.2736955-.54825-.8210863-1.102729-.5473909h-.274125c-.293676.0209153-.527301.2541748-.548249.5473909l.274125-.2736954s0 .2736954.274124.2736954h.274125c0 .2736955-.822374 0-.548249.5473909v.2736955c0 .2736954 0 .2736954.548249.2736954 0 0-.274125 0-.274125-.2736954h.274125v.2736954c0 .2736955.274125.5473914.554479.2736955 0 0-.274124 0-.274124-.2736955h.274124v-.2736954h.274125c0 .2736954.274125.2736954.548249.2736954.274125 0 0-.5473909.274125-.5473909h1.102728c0-.2736954 0-.5473909-.280354-.8210863-.274125 0 0-.2736955-.274125-.5473909.274125 0 .548249.2736954 1.102729.2736954.822374 0 1.096498 0 1.370623-.2736954.274124-.2736955.828604 0 1.102728 0 0 0 .274125 0 .274125.2736954v.5473909c0 .2736955-.548249 0-.548249 0h-.274125c-.296104.0179408-.533165.2519722-.554479.5473909l.274124-.2736954c0 .2736954.274125.2736954.55448.2736954-.274125 0-.55448.5473909-.274125.5473909h.274125c0 .2736955 0 .2736955.274124.2736955v-.2736955h.274125c.274125 0 0-.2736954.274125-.5473909v.5473909h.274124c0 .2736955.274125.2736955.54825.2736955 0 0-.274125 0-.274125-.2736955v-.2736954c0-.5473909-.274125-.5473909-.274125-.5473909 0-.2736955.54825 0 .54825-.5473909 0 0 0-.2736955-.274125-.2736955h.274125c-.274125 0-.274125-.2736954-.274125-.5473909 0 0 .274125-.2736954.274125-.5473909 0 .2736955-.54825.2736955-.54825 0 0 0 0-.2799158-.274124-.2799158-.54825 0-.822374 0-1.925103-.2674751 1.925103 1.3684773 3.576081 1.0947818 3.576081.5473909zm11.538154 11.7875659c.274125-.279916.274125-.279916 0 0 .274125-.279916.274125-.279916.548249-.279916 0 0 0-.273696-.274124-.273696 0 0 .274124 0 0-.273695h-.274125v-.273696h.274125l.554479.273696v.547391s0-.273696-.280355-.273696v.273696h-.274124v.553611l-.274125.273695zm.828604-1.648393c0 .273695-.280355.273695-.554479.273695-.274125-.273695 0-.273695-.274125-.547391.274125 0 .828604.273696.828604.273696zm.274125.273695s.548249.273695.822374.273695c-.274125 0-.274125.273696-.54825.273696 0 0-.274124-.273696-.274124-.547391zm13.189132 3.290566c0-.273696.274125-.273696.274125-.547391 0 .273695-.548249.273695-.548249 0 0 0 0-.273696-.274125-.273696-.548249 0-1.102728 0-2.199227-.273695 1.096499 0 3.021601-.273696 3.021601-.827307 0-.547391-.548249-.821086-2.473352-.821086-1.925102 0-7.413825.547391-7.413825-.273696 0-.54739 1.918873-.273695 3.295726-.273695l.274124.273695c2.192997.547391 4.946704-1.094781 6.317327-.54739-1.925102-.547391-3.021601.54739-4.672579 0 1.102729 0 2.199227-.273696 2.199227-.547391-.822374.547391-3.021601-.273696-4.124329.273695h-.274125c-1.644748 0-3.843975-.273695-3.843975.821086 0 1.922089 6.317327.821087 7.69418.821087 1.650978 0 1.925102.279916 1.925102.553611 0 .547391-1.370623.547391-2.473351.547391-1.370623 0-7.420055-.827307-9.619283 0 0-.273696.822374-1.101002.54825-1.368477.274124 0 .274124-.279916.274124-.553612 0 0-.274124-.273695-.548249-.273695v-.547391s-.274125-.273695-.548249-.273695c-.274125 0-.55448 0-.55448-.273696h-.274124s-.274125 0-.274125.273696c0 0-.274124-.273696-.548249-.273696v.547391c-.274125 0-.548249.547391-.548249.547391 0 .273695.274124.273695.274124.273695-.274124.273696-.274124.821087-.548249.821087 0 .279916.274125.279916.274125.279916v.54739h-.828604c-.274125 0-.54825-.54739-1.096499-.827306v-1.094782c0-.273695.274125-.547391 0-.821086v-.273696c0-.273695-.274124-.273695-.548249-.273695 0 0 .274125 0 .274125.273695 0 0 0 .273696-.274125.273696v.547391c0-.273696-.274125-.547391-.274125-.547391h-.274124c0-.273696-.280355-.273696-.55448 0h.274125v.273695c0 .273696.274125.273696.274125.273696-.274125-.273696-.54825 0-.54825.273695v.273695c-.274124 0-.274124.273696 0 .547391v-.273695h.274125c-.274125.273695-.274125.547391 0 .547391 0 .553611-.822374.279916-.548249 0-.141796.237286-.104037.540418.09165.7358.195688.195381.499295.23308.736954.091506 0 0 0 .273696.274124.273696 0 0 0 .273695.274125.273695v-.273695s.548249.821086 1.096498 1.094782c0 0 .274125-.273696.54825-.273696 0 .273696 0 .273696.274124.273696 0 .273695.280355.821086.280355.821086h-1.102729c-.274124.273696-1.096498.547391-1.370623.273696 0-.273696 0-.273696-.274124-.547391l-.280355-.273696h-.274125s-.548249-.273695-.548249 0c0 0 .274125 0 .274125.273696v.273695s0 .273696.548249.547391h-.274125c-.274124-.273695-.274124-.273695-.548249-.273695h-.274125c-.274124 0-.548249.273695-.548249.54739 0 0 0-.273695.274125-.273695v.273695c0 .273696.274124.547391.822374 0 0 .273696-.54825.547391-.274125.547391 0 .279916.274125.553612.548249.553612 0 0-.274124-.273696-.274124-.547391h.274124c.274125 0 .274125-.553612.274125-.553612s0 .547391.274125.273696c.280354 0 .554479-.273696.280354-.547391l.274125.273695s.274125 0 .274125-.273695v.547391s.548249-.273696.548249-.547391v.273695h.548249v.273696-.273696s0 .273696.274125.547391c0-.821086.554479-.547391 1.102728-.821086 0 0 0 .273695-.274124.273695.274124.273696.822374-.273695.822374-.54739 0 0 .274124 0 .548249-.273696.548249 0 .554479-.273695.554479-.273695 3.021601.273695 1.370623-1.368478 4.672579-.821087.274125 0 .274125-.273695.274125-.273695-.274125.273695-.274125 1.094782.274124 1.094782.274125 0 .54825 0 .54825.273695h-.54825c-.548249.273696-.548249-.821086-1.102728-.547391h-.274125c-.293676.020916-.527301.254175-.548249.547391l.274124-.273695s0 .273695.274125.273695h.274125c0 .273696-.822374 0-.54825.547391v.273695c0 .273696 0 .273696.54825.273696 0 0-.274125 0-.274125-.273696v.273696c0 .273695.274125.553611.548249.273695 0 0-.274124 0-.274124-.273695h.274124v-.273696h.280355s.274125.273696.548249.273696c.274125 0 0-.547391.274125-.547391h1.096498c0-.273695 0-.547391-.274124-.821086-.274125 0 0-.273696-.274125-.547391.274125.273695.548249.273695 1.102729.273695.822374 0 1.096498 0 1.370623-.273695.548249-.273696.822374 0 1.096498 0 0 0 .280355 0 0 .273695v.547391c0 .273696-.548249 0-.548249 0h-.274124c-.293676.020915-.527302.254175-.54825.547391l.274125-.273695c0 .273695.274125.273695.548249.273695-.274124 0-.548249.273695-.274124.547391 0 .273695 0 .273695.274124.273695v-.273695h.274125c.274124 0 0-.273696.274124-.547391 0 .273695-.274124.547391 0 .547391h.280355c0 .273695.274125.273695.548249.273695 0 0-.274124 0-.274124-.273695l.274124-.273696c.274125-.54739-.274124-.54739-.274124-.54739 0-.273696.548249 0 .548249-.547391 0 0 0-.273696-.274125-.273696h.274125c2.473352.273696 2.747476 0 2.747476-.273695zm-13.463257 5.480129c-.280355-.273695-.280355 0 0 0h-.554479v.547391l-.274125.273695c-.274124 0-.274124-.273695 0-.54739 0 0 0-.273696.274125-.273696h.274124c0-.273695 0-.273695-.274124-.273695 0 0 .274124 0 0-.273696h-.274125v-.273695h.274125l.548249.273695v.547391zm-.280355-1.094782c0 .273696-.274124.273696-.548249 0 0-.273695 0-.273695-.274124-.547391.274124.547391.822373.547391.822373.547391zm5.501183.273696.274125.273695c2.199227.547391 4.672579-1.094782 6.043202-.547391-1.650978-.547391-2.741246.547391-4.398454 0 1.102728 0 1.931332-.273695 2.199227-.547391-.822374.547391-3.021601-.273695-3.843975.273696-1.102729 0-2.199227 0-2.199227.821086 0 1.648393 4.672579.821087 6.043202.821087s1.370623.273695 1.370623.54739c0 .279916-1.644748.553612-2.467122.553612-1.370623 0-4.946703-.547391-7.420055-.273696.274125-.273695.548249-.827306.274125-1.101002.274124 0 .274124-.273695.274124-.547391 0 0-.274124-.273695-.548249-.273695v-.547391s-.274125-.273696-.548249-.273696c-.274125 0-.274125 0-.55448-.273695h-.548249l-.274124-.273695v.54739c-.274125 0-.274125.547391-.54825.547391 0 .273696 0 .273696.274125.273696-.274125.273695-.274125.547391-.548249.821086 0 0 0 .273696.274124.273696v.54739h-.274124c-.274125 0-.54825 0-.828604-.273695-.274125-.273695-.274125-.273695-.274125-.821086 0-.273696.274125-.547391 0-.821087v-.273695c0-.273696-.274125-.273696-.548249-.273696 0 0 .274124 0 .274124.273696v.547391c0-.273696-.274124-.547391-.274124-.547391 0-.273696-.274125-.273696-.548249-.273696h.274124v.273696c0 .273695.274125.273695.274125.273695-.274125-.273695-.548249 0-.548249.273696v.273695c-.274125 0-.274125.273696 0 .547391v-.273695h.274124c-.274124.273695-.274124.547391 0 .547391 0 .54739-.548249.273695-.548249 0-.137617.23598-.099346.534826.093314.728642.19266.193815.491677.234282.72906.098664 0 0 0 .273696.274124.273696 0 0 0 .273695.274125.273695v-.273695s0-.273696.548249 0c0 0 0 .273695.280355.273695h.548249v.821087h-1.102728c-.274125.273695-1.096499.54739-1.370623 0 0 0 0-.273696-.274125-.273696l-.274125-.273695h-.274124c0-.273696-.55448-.273696-.55448 0 0 0 .274125 0 .274125.273695v.273696s0 .273695.554479.54739h-.274124c-.280355-.273695-.280355-.273695-.55448-.273695h-.274124c-.274125 0-.54825.273695-.274125.547391 0 0 0-.273696.274125-.273696v.273696c0 .273695.274124.547391.548249 0 0 .273695-.548249.547391-.274125.547391 0 .273695.274125.547391.54825.547391 0 0-.274125-.273696-.274125-.547391h.274125c.280354 0 0-.273696.280354-.547391 0 0 0 .273695.274125.273695s.548249-.273695.274125-.547391l.274124.273696s.274125 0 .274125-.273696v.547391s.548249-.273695.548249-.547391v.273696h.548249v.273695-.273695s0 .273695.280355.547391c0-.821087.548249-.547391 1.096499-.821087 0 0 0 .273696-.274125.273696.548249.273695 1.096498-.273696 1.096498-.821086v-.273696.273696c.55448 0 .55448-.273696.55448-.273696 1.370623 0 .274124-1.368477 2.741246-.821086.280355 0 .554479 0 .554479-.273696-.274124.273696-.274124 1.094782.274125 1.094782.274125 0 .548249 0 .548249.273696h-.548249c-.548249.273695-.548249-.821087-1.096498-.547391h-.274125c-.296104.01794-.533166.251972-.554479.547391l.274124-.273696s0 .273696.274125.273696h.280355c0 .273695-.55448 0-.55448.54739v.273696c0 .273695 0 .273695.55448.273695 0 0-.274125 0-.274125-.273695v.273695c0 .273696.274125.547391.548249.273696 0 0-.274124 0-.274124-.273696h.274124v-.273695c0 .273695.274125.273695.548249.273695.274125 0 0-.547391.274125-.547391h1.096499c0-.273695 0-.54739-.274125-.821086-.274125 0 0-.273695-.274125-.547391.274125.273696.54825.273696 1.102729.273696.822374 0 1.096498 0 1.644748-.273696.554479-.273695.828604 0 1.102728 0 0 0 .274125 0 0 .273696-.274124.273695 0 .547391-.274124.547391 0 .273695-.54825 0-.54825 0h-.280354c-.293676.020915-.527301.254174-.54825.54739l.274125-.273695c0 .273695.274125.273695.548249.273695-.274124 0-.548249.273696-.274124.547391h.274124c0 .273696 0 .273696.280355.273696v-.273696h.274125c.274124 0 .274124-.273695.274124-.547391 0 .273696-.274124.547391 0 .547391 0 .273696.274125.273696.54825.273696 0 0-.274125 0-.274125-.273696l.274125-.273695c.274124-.547391 0-.547391 0-.547391 0-.273695.548249 0 .548249-.547391v-.273695s.274124 0 .274124-.273696c-.274124 0-.274124-.273695-.274124-.273695s.274124-.273696.274124-.547391c0 .273695-.548249.273695-.548249 0 0 0 0-.279916-.274124-.279916-.54825 0-1.370624 0-2.199228-.273695 1.102729 0 3.021601-.273696 3.021601-.821087s0-.821086-1.918872-.821086c-1.650978 0-5.501183.547391-5.501183-.273696 1.376853.821087 2.199227.821087 3.027831.821087zm-6.871806 9.318086c0-.273696 0-.273696 0 0l.274125-.273696s0-.273695-.274125-.273695c0 0 .274125 0 0-.273696h-.274124v-.273695h.274124l.54825.273695v.547391-.273695.273695h-.274125v.547391l-.274125.273696zm.54825-1.368477s-.274125.273695-.54825 0c0 0 0-.273696-.274124-.547391.299354.141516.576402.325926.822374.547391zm.548249.273695.548249.273695c-.274125 0-.274125.273696-.274125.273696-.274124-.273696-.548249-.547391-.274124-.547391zm4.124329-.273695.274125.273695c2.199227.547391 4.672579-1.094782 6.043202-.547391-1.644748-.547391-2.741246.547391-4.392224 0 1.096498 0 1.925102-.273695 2.199227-.547391-.828604.547391-3.027831-.273695-3.850205.273696l-.274125.273695c-.548249.273696-1.370623.547391-1.370623 1.094782 0 1.368477 5.769078.273695 5.769078.821086 0 .273696-1.102729.827307-2.473352.827307-1.102729 0-3.021601-.827307-5.494953 0 .274125-.547391.822374-1.101002.548249-1.368477.274125 0 .274125-.279916.274125-.279916l-.274125-.273696v-.54739s-.274124-.273696-.548249-.273696c-.280355 0-.280355 0-.554479-.273695h-.548249l-.274125-.273696v.547391c-.274125 0-.274125.547391-.548249.547391 0 .273695 0 .273695.274124.273695-.274124.273696-.274124.547391-.548249.547391l.274125.273696c0 .547391-.274125 1.101002 0 1.368477-.274125-.267475-.828604-1.094782-1.102729-1.368477-.274125-.273696-.274125-.273696-.274125-.547391v-1.094782c0-.273695-.274124-.273695-.548249-.273695 0 0 .274125 0 .274125.273695v.547391c0-.273695-.274125-.547391-.274125-.547391 0-.273695-.274124-.273695-.548249 0h.274125v.273696c0 .273695.274124.273695.274124.273695-.274124-.273695-.548249 0-.548249.273695v.273696s-.274125.273695 0 .547391v-.273696h.274125c-.274125.273696-.274125.547391 0 .547391 0 .547391-.54825.273696-.54825 0-.274124.547391.274125.827307.822374.547391 0 0 0 .279916.274125.279916 0 0 0 .273695.274124.273695v-.273695s0 .821086.54825 1.094782c0 .273695.554479.547391.828604.547391 0 .273695.274124.547391.274124.547391h-1.102728c-.274125 0-.54825.273695-.822374.273695h-.548249s0-.273695-.274125-.273695l-.274125-.273696h-.274124s-.280355-.273695-.55448 0c0 0 .274125 0 .274125.273696v.273695s0 .273695.554479.547391h-.274124c-.280355-.273696-.280355-.273696-.55448-.273696h-.274124c-.274125 0-.54825.273696-.274125.547391 0 0 0-.273695.274125-.273695v.273695c0 .273696.274124.547391.548249 0 0 .273696-.548249.273696-.274125.547391 0 .279916.274125.553612.54825.553612 0 0-.274125-.273696-.274125-.547391h.274125c.280354 0 0-.273696.280354-.553612 0 0 0 .273696.274125.273696s.274125-.273696.274125-.273696l.274124.273696s.274125 0 .274125-.273696v.547391l.548249-.547391v.273696h.548249v.279916-.273696s0 .273696.280355.547391c0-.827307.548249-.547391.822374-.827307 0 0 0 .273696-.274125.273696.274125 0 .54825-.273696.54825-.547391 0 0 .274124-.273696.548249-1.368477h.274124c.55448 0 .828604-.547391 1.376854-.547391-.274125.273695-.274125.547391-.274125.821086 0 .273696.548249.821086.548249.821086h-.548249c-.548249.273696-.548249-.821086-1.102729-.54739h-.274124c-.293676.020915-.527301.254174-.548249.54739l.274124-.273695s0 .273695.274125.273695h.274124c0 .273696-.548249 0-.548249.547391v.273696c0 .279916 0 .279916.274125.279916 0 0-.274125 0 0-.273696v.273696c0 .273695.274124.273695.548249.273695h-.274125.280355v-.273695l.274125.273695c.274124 0 0-.273695.274124-.547391h.822374s0-.553611-.274124-.827307c-.274125 0 .274124-1.094781-.54825-1.642172.274125 0 1.644748.273695 1.918873 0 .280355 0 .828604.273695.828604.547391v.273695c-.274125.273696-.274125.273696-.548249.273696l-.274125-.273696h-.280355c-.274124 0-.548249 0-.548249.273696h.274125v.273695c-.274125 0-.54825 0-.54825.273695v.273696s-.274124.273695 0 .547391l.274125-.273696s.274125-.273695.548249 0c-.274124 0-.274124.273696-.274124.273696s0 .279916.274124.553611v-.273695h.274125c.280355-.273696.280355-.553612.280355-.553612s.274124.273696.548249 0v-.273695s.274124.273695.274124 0c-.274124-.273696 0-.273696 0-.547391 0 0 .274125 0 .274125-.273695-.274125 0-.548249-.273696-.274125-.273696.274125 0 .54825-.273695.274125-.547391-.274125-.273695-.822374-.547391-.822374-.821086h.548249c1.925103 0 3.021601-.547391 3.021601-1.101002 0-1.368478-5.769077 0-5.769077-.821087 1.925103-.821086 2.199227-1.094781 2.747476-1.094781zm-92.6167424-99.5007377c0-.5473909-.5482492-1.3684772-1.3706231-1.3684772-.828604 0-1.3706231.8210863-1.3706231 1.3684772 0 .8210864.5420191 1.3684773 1.3706231 1.3684773.8223739 0 1.3706231-.5473909 1.3706231-1.3684773zm-.5482492-3.5642612c0-.8210863-.5482493-1.3684773-1.3706232-1.3684773-.8286039 0-1.3768532.547391-1.3768532 1.3684773 0 .8210864.5482493 1.3684773 1.3706231 1.3684773.828604 0 1.3706232-.5473909 1.3706232-1.3684773zm.8223738-1.6483931c.828604 0 1.3706232-.5473909 1.3706232-1.3684772 0-.8210864-.5420192-1.3684773-1.3706232-1.3684773-.8223738 0-1.3706231.5473909-1.3706231 1.3684773 0 .8210863.5482493 1.3684772 1.3706231 1.3684772zm3.5760804-.2736954c.8223739 0 1.3706231-.5473909 1.3706231-1.3684773 0-.8210863-.5482492-1.3684772-1.3706231-1.3684772-.828604 0-1.3706231.5473909-1.3706231 1.3684772 0 .8210864.8223738 1.3684773 1.3706231 1.3684773zm15.9366089-2.4632591c.5482492.5473909 1.3706231.5473909 1.9313326 0 .2640175-.250167.4135263-.597629.4135263-.9610442 0-.3634153-.1495088-.7108772-.4135263-.9610443-.2507362-.2656016-.6001062-.4161672-.9656663-.4161672s-.7149301.1505656-.9656663.4161672c-.2640175.2501671-.4135263.597629-.4135263.9610443 0 .3634152.1495088.7108772.4135263.9610442zm-.2741246-3.0168703c.2620282-.2499805.4102549-.5960855.4102549-.9579341 0-.3618485-.1482267-.7079535-.4102549-.957934-.2505593-.263604-.5985661-.4128788-.9625513-.4128788-.3639851 0-.711992.1492748-.9625512.4128788-.2620283.2499805-.4102549.5960855-.4102549.957934 0 .3618486.1482266.7079536.4102549.9579341.2741246.5473909 1.3706231.5473909 1.9313326 0zm-3.8439749-.5473909c.2640175-.250167.4135263-.597629.4135263-.9610442 0-.3634153-.1495088-.7108773-.4135263-.9610443-.2507362-.26560165-.6001061-.41616724-.9656663-.41616724-.3655601 0-.7149301.15056559-.9656663.41616724-.2640175.250167-.4135263.597629-.4135263.9610443 0 .3634152.1495088.7108772.4135263.9610442.5607095.5473909 1.3768533.5473909 1.9313326 0zm-3.0278311 2.1895636c.2620283-.2499805.4102549-.5960855.4102549-.9579341 0-.3618485-.1482266-.7079535-.4102549-.957934-.2505592-.263604-.5985661-.4128788-.9625512-.4128788-.3639852 0-.711992.1492748-.9625513.4128788-.2620282.2499805-.4102549.5960855-.4102549.957934 0 .3618486.1482267.7079536.4102549.9579341.5544794.5536113 1.3768533.5536113 1.9313326 0zm-8.7906783-1.9158681 1.0964985 2.4694794 1.3706231-1.6483931h.2803547c0 .8210864.2741247 2.195784.2741247 3.0168703 0 1.0947818.8223738 1.6421727 1.6509778 1.6421727 1.0964985 0 1.6447478-.8210863 1.6447478-1.6421727 0-.5473909-.2741246-1.3684772-.8223739-1.6421727l-1.9251025-1.9220885v-.2736954l2.4733518.2736954-.8223739-2.4694794-1.6509779 1.3684773v-2.4632591l-2.4733517.82108635 1.6509778 1.92208855v.2736954z"/><path d="m54.4909474 16.9340085c.547946.8205064.8281457 1.3675106.8281457 1.9207308-.5541727-.2797181-.8281457-.5532202-1.369865-1.3675106l.2677463 3.2820255c.273973-.5470042.8281457-1.0940085 1.1021187-1.0940085 0 2.188017-.8281457 3.0085234-1.6500647 3.0085234-.821919.2797181-1.6500647-.2735021-1.6500647-1.0940085-.273973-.8205064.547946-1.6410128 1.3698651-.5470043.2801996-1.9145148-1.3698651-1.9145148-2.1917841-1.0940085.821919-1.9207308.547946-3.0147393-1.1021187-4.1087478-1.095892 1.6410127-.547946 3.0147393.8281457 4.1025319-1.369865-.5407883-2.4719837.5532202-1.369865 1.9269468.2677463-1.3737266 1.369865-1.1002245 1.643838 0 .273973.8142904-.547946 1.9145148-1.9240377 2.4615191-1.9240377.5470042-2.73973-.5470043-3.0199297-1.6472287.547946-.2735021 1.3698651-.2735021 2.4719837.5532202l-.821919-3.0147393c-.5541727 1.0940085-1.1021187 1.6410127-1.9302643 1.9145148 0-.8205063.5603993-2.7350212.5603993-2.7350212l-3.854302 1.6410127s1.6500646.8205064 2.4719837 1.6410128c-.8219191.2797181-1.6438381.5532202-2.7397301 0l1.369865 2.4677351c.273973-1.3675107 1.0958921-2.188017 1.3698651-2.188017.2801996 1.0940085.8281456 2.4615191-1.0958921 3.2820255-1.369865.5470042-2.7459567.5470042-3.0199297-.2735022-.547946-.8205063 0-1.9145148 1.0958921-1.0940085-.273973-1.9145148-1.6438381-1.9145148-2.1980107-.5470042 0-1.9207308-.547946-3.0147393-2.4719837-3.5617436-.547946 1.9145149.273973 3.0147393 1.9302643 3.8352457-1.1021187 0-2.2042373.8205064-.8281457 2.188017 0-1.0940085 1.0958921-1.3675106 1.6438381-.5470042.3628336.6833407.1210855 1.5307495-.547946 1.9207308-.547946.2735021-1.9240377.2735021-3.3001294-1.0940085.5603993-.2797181 1.1021187 0 1.6562913 0l-1.9302643-2.4677351v1.9145149c-.5417194-.5470043-.5417194-.8205064-.821919-1.9145149l-1.643838 1.3675106c1.369865.8205064 3.3001293 2.194233 5.2179404 5.2089723 2.1980106-1.3675106 6.0398594-3.2944574 8.511843-4.1087478 2.9346245-1.2499608 5.9667361-2.2582347 9.0660158-3.0147393-.547946-3.2882415-.273973-5.4824745.273973-7.1234872zm4.3960214 18.3495062c-1.9240377 1.6472287-4.3960214 0-5.7658864-1.9145149 2.73973-1.0940085 5.7658864-2.1942329 7.6899241-3.5617436-1.6500647 3.0147394-.273973 4.1087479-1.9240377 5.4762585zm-.547946 19.9967349c-2.4719837 1.1002245-4.3960214-1.0940085-4.9439674-2.4615191-.547946-1.3675107-.8281457-2.7350213-.273973-3.2882415 1.095892-1.0940085 1.369865-1.9145149.821919-3.2882414-.821919-1.6410128-2.4719837-.8205064-4.1220484-.2735022.8281457-1.3675106.8281457-2.467735-.273973-2.467735-1.369865.279718-1.369865 2.1942329-2.1980107 1.9207308-.821919-.2735021-.273973-1.3675106-.273973-2.194233 0-.8205063.5479461-1.0940085 1.3698651-1.6410127l7.1482047-2.7350213c.821919-.279718 1.643838-.5532202 2.1980107 0 .547946.5407883 1.643838 1.0940085 1.369865 1.6410128-.273973.8205064-1.9240377-.8205064-3.0199297 0-.821919.5470042 0 1.3675106 1.369865 1.9145149-1.643838.8205063-3.2939027 1.6472287-2.73973 3.0147393.547946 1.3675106 1.369865 1.6410127 2.73973 1.6410127.8281457 0 1.3760917 1.1002245 2.1980107 2.4677351 1.1021187 2.194233 1.3760917 4.6619681-1.369865 5.7497606zm-13.7360101-14.5142605c-1.9178111.2735021-1.9178111-1.6472287-5.2179404-2.4677351 2.4719837-.5470042 5.4919134-1.6410127 8.2440967-2.7350212.547946 2.188017-.5541727 4.9292542-3.0261563 5.2027563zm40.3798847 64.0927369c.547946-1.367511-2.1980107-3.008524-2.4719837-5.2027566-.273973-2.188017 0-4.1025319-2.4719837-6.8437691s-10.7098538-11.5057371-13.1880641-14.5204765c.5541727 0 2.1980107-.2735021 3.5741024 1.0940085.821919.8205064 2.73973 2.4677351 4.3960213 4.1087479 2.0015335-5.1764927 4.9846474-9.9188996 8.7858161-13.9672563l1.6500647-1.6410127c-1.369865.5470042-3.5741023.8205063-4.9439674 1.6410127 0-2.4677351 0-4.3822499-1.6500647-6.0294786.5479461-3.2820255 0-7.3969893-7.4097244-12.5997457 3.8418487.8267224 6.3138324 4.38225 9.0597891 1.6472287-2.7459567 0-2.7459567-6.0294786-12.3599184-10.6852307 3.5678757 0 6.594032 5.7559765 10.9838268 2.4677351-4.1158218-.5470043-5.4919134-7.6704914-12.6338915-9.8647244 2.4719837.2735021 5.2179404 1.6472287 7.1419781-1.3675106-2.4719837.5470042-4.1220484-1.6410128-6.5940321-1.9207308 1.1021187-3.0085234.8281457-4.9292542-.273973-7.3969893-1.9240377 0-3.8418487.8267223-5.2179404 1.9269468-.273973-1.6472287-1.9240377-1.9269468-3.5678757-1.6472287 0 .8205063.547946 1.9145148-.273973 1.9145148-1.3760917.2735022-5.4981401 1.3675107-9.0660158 2.7350213-3.3001293 1.3737266-7.1419781 3.5679595-8.2440967 4.3884659-.547946.5470042-1.369865-.5470043-1.6438381-1.0940085-1.1021186 1.0940085-2.1980106 2.188017-1.369865 3.5617436-1.9302643.2735021-3.8480753.5470042-5.772113 1.9145149 0 2.1942329 1.9240377 4.1087478 4.3960214 5.4762584-4.3960214 4.38225-.5541727 8.4909978-4.3960214 12.3262435 5.4919134.2735021 4.6699944-7.3969893 7.4097244-8.4909978-.2677464 5.4824744-3.2939027 6.3029808-3.2939027 12.3262435 0 3.0147393 1.9302643 6.5764829.2801997 8.4909978 4.6699943-1.3675106 3.2939027-11.4995212 6.3138324-14.5142605.547946 1.6410127.273973 3.5617436-.273973 5.2027563-1.6438381 4.6619681.273973 11.232235-2.4719837 13.426468 4.6699943-.5532202 5.2179404-7.9439936 9.3399887-10.9587329-3.3001293 6.8437691-6.868005 21.3642455-11.8119724 28.7612348-7.9701238 10.9525172-12.9078645 24.1054832-20.3238156 24.1054832-3.3001293 0-5.772113-1.920731-5.772113-6.029479 0-12.3262436 21.1519612-20.8172414 21.1519612-33.9639912 0-5.7497606-4.6699944-8.2174957-7.6899241-8.2174957-1.9240377 0-4.3960214 1.0940085-6.5940321 2.7350212-.821919-.2672861-1.643838-.5470042-2.4719837-.5470042-7.40972438 0-5.49191336 13.4264679-12.07971877 13.4264679 2.46575704 1.3675107 7.13575137-1.3675106 9.60773507-5.2089723-1.095892 8.7645-13.72978344 6.3029808-12.63389143 16.9882116 1.65006468-8.2237116 21.97388023-7.1234872 21.97388023-19.4559466 0-1.3675107-.821919-2.4615192-1.6500647-3.5555277 1.6500647-1.0940085 3.0261564-1.3675106 4.1220484-1.3675106 2.4719837 0 4.6699944 1.9145149 4.6699944 5.2027564 0 10.9525169-21.15196124 20.264021-21.15196124 33.9639912 0 2.194233.54794601 4.108748 1.65006468 5.755976-1.36986502.547005-3.0199297.273503-4.39602138-1.100224 0 3.561744 4.94396734 5.755977 7.97012374 3.835246.821919.273502 1.369865.273502 2.191784.547004-.821919 2.467735-4.1158217 3.294457-5.76588636 3.294457 5.21794036 4.102532 14.28395616-1.373726 13.73601016-5.755976 4.1158217-3.288242 6.5878054-9.038002 9.6077351-12.599746-.273973.820507-.273973 1.641013-.547946 2.461519-3.0199297 5.482475-5.7658864 10.411729-6.5878054 17.529-.5541727 6.029479-3.8480754 11.505737-7.9701238 11.505737-.821919 0-2.4719837-1.094008-3.2939027-.547004-1.369865 1.100224 0 2.467735 0 3.561744 0 1.647228-3.3001293 3.561743-3.3001293 8.764499 0 2.467736 1.3760916 5.208973.8281456 6.849986 1.3698651-.820507 3.3001294-3.01474 3.8480754-6.029479 1.369865 7.123487-3.0261564 6.849985.273973 12.879464.273973-2.194233 2.4719837-3.01474 3.8418487-2.194233 1.369865.820506.547946 1.36751-.273973 2.467735-.821919.820506-1.9240377 5.476258 2.4719837 5.202756-.821919-.547004-.821919-1.641013 1.369865-2.194233 3.0261564-.547004 3.8480754.826722 6.8680051.826722 1.9302643 0 2.4719837-2.467735 4.1220484-2.467735s1.6500647 1.094009 1.1021187 2.194233c2.4719836-.55322 3.0199297-1.920731 3.0199297-3.294457 0-1.367511-1.1021187-2.188017-.2739731-2.735021.8219191-.547005 3.8418488 0 2.4719837 2.467735 1.3698651-.273502 2.1980107-1.367511 2.1980107-3.01474 0-1.92073-2.1980107-2.735021-4.1220483-2.467735-.273973-1.094008-1.9240377-1.641012-3.5741024-1.641012-3.5678757 0-3.0199297 2.735021-5.2179404 2.735021-3.8418487 0-7.4097244-4.929254-7.4097244-13.14675 0-4.38225 4.6699944-5.470043 8.2378701-7.117271 3.3001293-1.367511 9.3399887-5.208973 12.9078644-10.958733 2.7459567-4.661968 3.0199297-9.858509 2.4719837-15.887987 4.6699944 2.735021 5.2179404 6.576483 5.2179404 9.585006 0 3.835246-1.9240377 5.208972-3.5678757 6.029479-1.369865.547004-1.6500647.273502-1.9302643 1.094008-.2677464.820507.5603993 1.367511 1.1021186 1.920731 1.6500647.820506 1.3698651 2.461519 1.9302644 4.38225.5417193 1.914515 2.191784 4.655752 4.6699944 6.570267.2677463-1.094009.2677463-3.008523 0-5.202756 3.5678757 1.914514.8156923 9.311504 7.9576704 9.311504-1.369865-.820507-1.095892-2.735021-.273973-3.008524.8281457-.273502 1.6500647.547005 3.0199297 2.46152 1.3760917 1.92073 1.1021187 1.647228 4.3960214 1.647228 3.3001293 0 1.9240377-1.100224 3.5741023-1.100224 1.9240377 0 1.6438381 2.194233.8219191 3.561743 3.0199297-.820506 3.8480753-3.288241 3.0199297-5.476258 2.7459567-1.367511 4.1220483.547004 4.3960213 1.914515 2.7459567-2.735021 0-5.749761-2.1980107-6.029479 0-1.087792-.821919-1.914515-1.9240376-2.188017-1.0958921 0-2.1917841-.273502-3.2939027 0-1.3698651 0-1.9240377 1.920731-3.3001294 1.920731-4.3897947 0-13.4495838-8.217496-13.4495838-11.505737 0-3.561744 8.5118431-5.749761 8.5118431-10.958733 0-7.117271-6.8680051-9.585006-12.9140912-13.9672563 2.1980107-2.467735 8.2440968-3.0147393 11.8119725-1.0940085.273973-1.9207308 1.6500647-1.3675106 2.1980107-4.9354701 1.369865 3.0147393 0 5.4824744 1.1021187 6.849985 1.095892-1.3675106 3.5678757-1.3675106 3.2939027-4.9292542.821919 2.188017-1.1021187 5.7497606.821919 7.3969891.273973-1.9207306 1.369865-2.1942328 2.1980107-2.1942328.8281456 0 1.369865.5470043 1.369865 1.6472288 0 2.735021-3.5678757 1.641013-3.5678757 4.655752 0 1.367511 1.6500647 1.914515 1.6500647 2.735021 0 .826723-1.3698651 2.194233-3.0199297 1.100225.273973-.547005 1.643838.547004 3.0199297.547004 1.6500646 0 3.3001293-1.367511 3.8418487-2.735021.8281456 1.914515.2801996 4.376034-1.3698651 4.649536 1.6500647.820506 5.2179404 0 4.6699944-4.655752 2.1980107.273502 3.3001294 1.647228 1.9240377 4.38225 1.643838-.547005 3.2939027-1.367511 3.2939027-3.01474.273973-1.641012-1.369865-2.188017-.547946-3.829029zm136.7872486 33.970207c0-2.467735 1.917811-4.38225 4.396022-4.38225 2.471983 0 4.389794 1.914515 4.389794 4.38225.015253 1.167928-.443203 2.292389-1.271132 3.117723-.827927.825335-1.954973 1.281408-3.124889 1.264527-2.191784 0-4.389795-1.920731-4.389795-4.38225zm-1.369865 0c0 3.288241 2.73973 6.029478 6.03986 6.029478 3.293902 0 6.039859-2.741237 6.039859-6.029478-.030411-3.317333-2.716815-5.99912-6.039859-6.029479-1.612145-.034254-3.168423.589988-4.30864 1.728245-1.140216 1.138256-1.765532 2.69186-1.73122 4.301234zm-19.782096 10.958733c-1.650065-.273502-3.01993-1.647229-2.745957-2.741238 0-.547004.547946-1.094008.821919-1.36751.828146-.55322 1.650065-.55322 2.745957-.55322 1.650065.273502 2.745957 1.36751 2.745957 2.467735v.273502c-.273973 1.36751-1.643838 2.194233-3.567876 1.920731zm-2.471984-5.482475c-.821919.547004-1.369865 1.367511-1.369865 2.194233-.292767 1.07935.021587 2.232381.821919 3.01474.821919.820506 1.924038 1.36751 3.01993 1.641012s2.471984 0 3.300129-.547004c.993809-.474039 1.704837-1.388951 1.917811-2.467735.273973-2.188017-1.369865-4.102532-3.841848-4.655752-1.650065 0-3.026157.273502-3.848076.820506zm-33.237906-79.9807234c0-.8267223.554172-1.6472287 1.376091-2.194233.622415-.5072445 1.394916-.7956155 2.198011-.8205063.273973 0 .821919.2735021 1.095892.5470042.223284.4194191.320576.8942537.2802 1.3675106 0 .8267224-.554173 1.3675107-1.376092 1.9207309-1.102119.8205063-2.745957.8205063-3.300129 0-.273973-.2735022-.273973-.5470043-.273973-.8205064zm.280199-3.5617436c-1.930264 1.3675106-2.47821 3.8352457-1.102118 5.4762585 1.102118 1.6410127 3.574102 1.6410127 5.491913.2735021.979807-.7458745 1.663593-1.8138301 1.930264-3.0147393 0-.8205064 0-1.6410128-.560399-2.4615192-.541719-.5470042-1.369865-1.0940085-2.191784-1.0940085-1.369865-.279718-2.745957 0-3.567876.8205064zm28.007513 80.527728c-.507895-.010789-.994625-.205147-1.369865-.547004-.547946-.547005-.821919-1.641013-.821919-2.461519 0-1.100225.273973-1.920731 1.102119-2.467736.37524-.341857.861969-.536215 1.369865-.547004 1.369865 0 2.198011 1.367511 2.198011 3.288242 0 1.094008-.273973 1.914515-1.095892 2.461519-.2802 0-.554173.273502-1.376092.273502zm-2.191784-6.843769c-.891941.971249-1.381511 2.244164-1.369865 3.561743 0 1.367511.547946 2.735022 1.369865 3.561744.547946.820506 1.650065 1.094008 2.471984 1.094008.941045-.003273 1.837651-.400077 2.471984-1.094008.891941-.971249 1.38151-2.244164 1.369865-3.561744 0-1.100224-.273973-2.467735-1.095892-3.294457-.821919-.81429-1.643838-1.367511-2.745957-1.367511-.821919 0-1.650065.553221-2.471984 1.100225zm-28.013739-42.1877029c-1.650065-.8205064-2.471984-2.188017-1.924038-3.5555277.273973-.5470042.821919-.8267223 1.095892-.8267223.911791-.3102167 1.913537-.2104412 2.745957.2735021.828145.5532202 1.650064 1.1002245 1.930264 1.9207309 0 .2735021.267746.8205063 0 1.3675106-.2802.5470042-.828146.8205064-1.102119.8205064-.828145.5532202-1.924037.2735021-2.745956 0zm-1.102119-6.0232627c-.821919.2735021-1.643838.8205063-1.917811 1.6410127-.828146 1.9207308.273973 4.38225 2.471984 5.4824744 1.369865.5470043 2.73973.8205064 3.841848.2735022.821919-.2735022 1.650065-.8205064 1.924038-1.6472288.273973-.8205063.547946-1.6410127 0-2.7350212-.547946-1.1002245-1.369865-2.194233-2.745957-2.7350213-1.123787-.5004137-2.385927-.5991921-3.574102-.279718z"/><path d="m205.079766 113.143204c-1.103145 1.369972-2.748514 1.917961-3.851659 1.095978-1.096912-.821983-1.096912-2.472177-.274228-3.842149 1.096913-1.369973 2.748514-1.917961 3.851659-1.095978 1.096912.821983 1.371141 2.46595.274228 3.842149zm-6.8744 11.246226c-1.096913 1.369973-2.748514 1.924189-3.851659 1.102205-1.096913-.82821-1.096913-2.472177-.274228-3.842149 1.103145-1.369972 2.748514-1.924188 3.851659-1.102205 1.096912.828211 1.096912 2.472177.274228 3.842149zm-24.1944-60.9139451c.822685-2.4721771 2.474286-7.6842985 2.474286-7.6842985l2.748513 1.0959777c-.822684.2739944-1.645368 1.0959778-2.474285 1.9179611.821127.3095186 1.74092.2076636 2.474285-.2739945l-1.096912 2.7461716c-.404857-.6769116-.972586-1.2420163-1.651601-1.6439667-.548456 2.1919556.822684 3.0139389 1.925829 3.5619278 1.651601.8282104 2.748514 1.1022049 3.303202.2802215.542224-.8282104-.554688-2.1981826-1.932061-1.6501937-.274228-1.3699722.554688-2.1919556 1.651601-2.1919556.822684 0 1.371141.5479889 1.651601 1.6439667 0-2.1981827.822684-4.1161438 3.022742-4.6703598.822684 2.1981827.274228 3.8483765-1.651601 5.4923431.828917-.2739944 1.932062-.2739944 2.200057.2739944.548456.8219834.274228 1.9241883-.822684 2.4721771-.274228-1.3699722-1.92583-1.6501937-2.474286-.5479888-.548456.8219833.274228 1.917961 1.651601 2.7399444 1.645369 1.1022049 3.29697.2739944 4.119655-1.0959778-.548457-.2739944-1.645369 0-2.474286.5479889l1.925829-3.2941604c0 .554216.274229 1.3699722 1.096913 1.9241882.280461-.8219833.554689-2.1981827 0-3.2941604l3.851659 2.1981826c-1.371141 0-2.200058 1.0959778-2.748514 1.6439667.822684.2739944 1.925829.2739944 2.200057 0l-2.474285 3.0201659c0-1.0959777-.274228-1.9241882-.828917-2.4721771-.822684 1.6501938-.548456 3.020166 1.103145 4.1161438 1.371141.8219833 2.748514 1.0959777 3.303202.2739944.542224-.8219833-.28046-2.4659499-1.932061-1.9179611 0-1.3699722.828916-2.1981826 1.651601-2.1981826.828917 0 1.37114.8219833 1.37114 1.9241882.554689-2.1981827 1.651602-3.5681549 3.851659-4.1161437.548456 2.1919555-.548456 3.8421493-2.474286 4.938127.828917-.2739944 1.932062 0 2.200058.5479889.548456.8219833.274228 1.9241882-1.096913 2.4721771-.274228-1.3699722-1.925829-1.9241882-2.474285-.8282105-.548456.8282105.274228 1.6501938 1.925829 2.7461716.822685.5479888 2.193825 1.3699722 3.845426-.2739945-.622994-.5081575-1.396215-.7970479-2.200057-.8219833l1.925829-2.1981827c0 .8282105.548456 1.9241883 1.096913 2.1981827.274228-1.0959777.554688-2.1981827.274228-3.2941604l2.200057 1.9241882s-3.571198 3.8359222-5.497027 6.0341048zm29.142971 33.2031444c0-.2802216 0-.8282105.548456-1.3699722.548456-.5542161 1.103145-.5542161 1.371141-.5542161.828916 0 1.651601.5479889 2.480518 1.0959778.548456.8282105 1.096912 1.6501938 1.096912 2.4721771 0 .2739944 0 .8219833-.548456 1.3699722s-1.096913.5479889-1.371141.5479889c-.828917 0-1.651601-.5479889-2.480518-1.0959778-.822684-.5479889-1.096912-1.6439666-1.096912-2.4659499zm10.719826 49.1197307c.292702-.894736.873398-1.667607 1.651602-2.198183.822684-.547989 1.925829-.821983 2.748513-.547989.274228 0 .822685.273995 1.371141.821983.200584.428078.296701.897583.28046 1.369973-.292701.894735-.873397 1.667606-1.651601 2.198182-1.37114.821984-3.303202.821984-3.845426-.273994-.554689-.273995-.554689-.821983-.554689-1.369972zm-50.850619-74.0905876c.019904.8106219-.277484 1.5970239-.828917 2.1919555-.274228.2739945-.548456.5479889-1.096912.5479889-1.103145 0-1.651602-1.0959778-1.651602-2.4659499v-.2739945c-.021541-.8127578.275961-1.6016943.828917-2.1981826.274228-.2739945.548456-.5479889 1.096913-.5479889.548456 0 .822684.2739944 1.096912.5479889.345428.6826857.534881 1.4334704.554689 2.1981826zm15.668398-32.1071665c.822684-1.6501938 0-4.1161438 3.022741-4.1161438 1.371141 0 2.748514 1.3699722 4.400115 1.9179611-2.748513.2739944-5.497027.8219833-7.422856 2.1981827zm45.914513 40.3332268c1.925829 5.2183487 5.771255 7.1363097 8.793997 5.7663375-6.59394-.8219833-1.37114-12.0744367-9.622914-12.0744367-.548456 0-.822684 0-1.37114.2739944-1.371141-1.6439666-3.022742-2.1919555-5.497028-2.1919555-3.57743 0-9.897142 3.5619277-9.897142 10.6982374 0 15.3685972 17.868455 16.7385694 17.868455 30.4632002 0 4.109916-3.022742 6.582093-6.325944 6.582093-3.022742 0-5.497028-3.29416-7.971313-8.780276-1.096913-2.472177-3.851659-6.040332-6.600172-9.60226.80654.556634 1.768525.84433 2.748513.821984.828917 0 1.932062-.273995 2.480518-.821984.684149-.642682 1.07967-1.5340907 1.096913-2.4721767v-.2739944c0-1.0959778-.548456-2.4721771-1.371141-3.5681549-1.10535-.8543881-2.454608-1.3342968-3.851658-1.3699722-.828917 0-1.92583.2739945-2.474286.8219834-.68704.6412024-1.084987 1.5330119-1.103145 2.4721771 0 .5479888 0 1.0959777.274228 1.6439666-3.845426-4.9381271-7.416624-9.8762541-7.416624-12.6224257 0-2.4721771 1.645369-4.3901381 3.571198-7.1363097l.822684.2739945.548457-.5479889c.828916-.8219833 2.200057-2.46595 5.229031-5.7601104l.274228-.2739944.822685-.8282105-1.92583-1.6439666c.548457-1.0959778.828917-2.4721771 1.371141-3.8421493.554689 2.4721771 1.932062 4.1161437 3.577431 3.5681549-1.096913-2.4721771 1.103145-6.040332-.274229-12.3484313 1.371141 2.4721771 3.577431 3.5681549 5.2228 3.2941605-3.845426-3.5681549 1.103145-8.5062819-4.119655-15.9165861 1.645369.5479889 2.742282.2739944 3.571198-.5479889-4.674343-.5479888-2.474285-6.5883208-10.719826-8.7802763 1.919597-.2739945 3.29697-1.6501938 3.022742-2.7461716-2.200058 1.6439667-4.125887-3.0201659-11.274516-2.7399443-.548456-2.7461716-3.022741-5.4923431-5.771255-6.8623153.548456 2.1919555 0 3.8421493-.548456 5.4798888l-23.377948-22.76644708c-.548456-.54798887-1.096912-.82198331-1.371141-.54798887-.274228.27399444-.274228.54798887.274229 1.09597775l20.068512 25.2510784c-1.651601.5479889-3.022742 1.0959778-4.674343 1.6439667-1.096912.2739944-1.651601 1.3699722-1.651601 2.4721771-3.033859 1.5089454-5.891188 3.3488588-8.519769 5.4861159-1.371141 1.0959778-2.200058 1.3699722-1.103145 3.8421493.554689.8219833-.822684 3.2941604 1.932062 1.6439666 1.919597-1.0959777 6.319711-3.5681548 6.868168-1.917961.274228.8219833-1.92583 1.917961-3.303203 2.4659499-1.37114.554216-3.022742 1.6501938-2.742281 2.1981827.274228.5479888 1.371141 0 1.371141.5479888 0 .5479889.548456 1.3699722 1.096912 1.3699722.554689 0 1.377373-1.0959777 1.932062-.8219833.542224.2739945-.280461 3.020166-.828917 3.8421493 2.200058-.2739944 3.845426-2.4659499 3.845426-4.1099166 0-1.6501938.554689-2.1981826.828917-2.4721771.274228-.2739944.822684 1.9179611.274228 3.0139389 1.096913-.2739945 2.474286-1.9179611 2.200058-4.6641327.548456-.5479888 1.096912-.8219833 1.651601-.8219833.822684 0 2.193825 2.1981827 4.393882 2.1981827 3.851659 0 6.045484-3.3003876 6.325944-4.6703598.246876-1.1256749.05047-2.3031052-.548456-3.2879332 1.371141 1.0959777 1.92583 3.0139388 1.92583 4.3901381 0 5.486116-9.897143 8.2322875-14.023029 12.0744368-.274229 0-.274229.2739944-.548457.5479889l-4.674343-1.9241882-.28046 1.1022049s0 .2739944-.274228.8219833c-.548457 1.6439666-1.371141 4.938127-2.193825 6.8560881l-.280461.8282105.554689.2739944c-2.748514 3.5681549-4.948571 7.6842986-5.50326 12.0744368-1.096913-1.1022049-2.193825-2.1981827-3.29697-3.020166 0-.2739944.274228-.8219833.274228-1.3699722 0-1.3699722-.274228-2.4721771-1.096912-3.3003876-.554689-.5417617-1.371141-1.0897506-2.200058-1.0897506-.812475-.0225466-1.60173.2723343-2.200057.8219833-.274228 0-.274228.2739945-.274228.5479889-.274229 0-.274229-.2739944-.548457-.2739944-1.651601-1.0959778-3.57743-2.4721771-4.674343-3.8421493-.491983-.5441499-1.198486-.8447267-1.932061-.8219833h-2.193825c-.548457 0-1.096913.5479888-1.92583 1.0959777-.274228.2739945-1.37114 1.0959778-2.742281 2.1919555.542224.5542161 1.09068 1.1022049 1.645369 1.9241883.274228.2739944.548456.8219833.822684 1.0959777.274228-.2739944.548456-.5479889.822684-.5479889.828917-1.0959777 1.377374-1.0959777 2.200058-1.0959777.554689 0 1.371141.5479889 1.932062 1.3699722.542223.5479889 4.113422 5.4861159 7.416624 9.0542708-.274228 0-.548456.2739944-1.096913.2739944-1.37114.5479889-4.400114.5479889-5.777488.2802216-1.37114 0-1.645368-.554216-2.474285 1.0959777-.274228.5479889-.822684 1.0959778-1.371141 1.6439667-.548456.5479889-.828917 1.0959777.274228 2.7399444 1.371141 2.1981826 4.674343 8.512509 6.045484 11.2524534 1.103145 2.7461716 2.474286 3.3003876 4.674343 4.1161442 2.200058.82821 5.777488 3.020166 6.325944 3.568154l.274228-2.191955c-.548456-.547989-2.748513-1.369972-3.57743-1.650194-.822684-.2739943-1.096913-.5479888 0-.5479888.828917 0 3.57743.8219838 5.50326 1.6501938-.548457-2.1981826-2.474286-4.3901382-3.851659-5.7663375-1.651601-.5479889-3.303202-.5479889-3.845426 0 0 .5479889-.274228 1.1022049-.828917 1.1022049-.548456 0-1.096912-.5479889-.822684-1.1022049.274228-.5479889 1.096912-.8219833.822684-1.9179611-.274228-1.0959777-1.645369-1.3699722-2.742281-1.3699722-1.377373-1.9241882-2.754746-4.6703597-3.577431-5.7663375-.828917-1.0959777-.274228-1.6439666.274228-2.1919555 1.096913-.8282105 3.571198.5479889 8.245542.8219833 1.651601 0 3.851658.2739945 5.777487.2739945.548457 5.4861159 2.742282 10.7044645 10.445599 12.6224256 3.845426.8219833 7.697085 3.5681544 9.074458 7.1363094-15.39417-.273994-17.874688 5.760111-17.874688 11.246227 0 6.314326 5.497028 6.040332 5.497028 10.978459 0 4.116143-12.919884 6.040332-16.765311 6.58832-3.303202.547989-5.229031 1.095978-6.8744 2.739945-1.651601 1.650194-3.303203 3.020166-6.045484 6.040332 0 0 1.096913.273994 2.468053.273994l2.200058-2.739944c.548456-.828211 1.103145-1.650194 1.651601-1.650194s.274228.821983-.274228 1.917961l-1.925829 3.020166c7.697084.547989 7.977545-2.191955 7.977545-3.568155 0-1.095977-1.932062-1.917961-.828917-2.739944 1.096913-.828211 1.925829-.273995 2.748514.821983.822684 1.095978 1.096912 1.917961 3.303202 1.095978 0 0 16.491082-6.862315 18.69114-7.684299 1.925829-.821983 1.37114-1.643966.274228-2.46595-1.096913-1.102205-1.371141-2.746171-1.371141-4.396365 0-4.938127 3.022742-6.582094 8.245541-6.308099 0 .821983-.274228 1.643966-.274228 2.472177 0 7.678071 11.822972 15.36237 14.845714 15.36237 1.37114 0 3.303202-1.095978 3.571198 3.568155 0 3.568155.828917 5.76011.274228 9.882481-.548456 4.109917-1.645369 4.664133-4.119654 6.308099-2.474286 1.643967-4.674343 6.862316-5.777488 7.958293 1.103145.821984 2.200057.821984 3.028974-1.643966.822684-2.198183 1.645369-3.568155 2.474285-4.116144-.828916 2.46595-1.651601 5.76011-1.932061 6.856088 3.028974.547989 7.977545-2.191955 7.977545-4.390138 0-2.191956-1.651601-1.917961-1.651601-3.29416 0-.547989.828917-1.369973 1.651601-1.369973 1.103145 0 2.200057 1.095978 2.200057 1.369973 1.371141-.821984 2.200058-1.917962 2.200058-5.212122v-3.842149c0 .273994.274228.273994.274228.547989.548456.82821 1.651601 1.369972 2.748514 1.650193 1.103145 0 2.200057-.273994 3.303202-.82821 1.116401-.783947 1.898949-1.956769 2.193825-3.287933v-.828211c-.054199-.669246-.240608-1.321124-.548456-1.917961-.548456-.821983-1.371141-1.369972-2.200058-1.369972-1.340366-.261725-2.729562.035224-3.845426.821983-1.103145.821984-1.932062 1.643967-2.200057 3.020166-.274228-4.116144-.548456-8.232287-.548456-9.882481.274228-2.46595.274228-3.568155-.554689-3.842149-.822685-.273995-1.645369 1.102205-2.742281 1.102205-1.103145 0-4.674343-3.300388-4.674343-6.588321 0-3.294161 3.571198-7.684299 3.571198-12.348431 0-1.369973.822684-2.198183 1.37114-.821984.828917 1.643967 1.651601 3.568155 3.303203 5.486116-1.103145 5.760111 5.497027 11.520221 10.719826 7.13631-2.474285.273994-4.400115-1.924188-5.497027-4.116144h2.200057c1.92583 2.191956 7.697085 2.191956 9.068226-3.568155-1.096913 1.095978-3.022742 2.198183-4.674343 1.917961 2.200057-1.643966 3.303202-4.390138 3.303202-7.410304 0-14.5403865-17.868455-16.4583476-17.868455-29.6349893 0-4.938127 4.393882-8.2322874 7.416624-8.2322874 1.103145 0 1.932062.2739944 2.754746.8282104-1.103145 1.0959778-1.651601 3.0139389-1.651601 5.2121215.548456 10.424243 17.594227 10.1502486 17.868455 15.0883756 2.200058-8.5062819-10.719826-6.0341048-11.268283-16.4645749z"/></g></svg>